<?xml version="1.0" encoding="utf-8"?>
<!-- Generator: Adobe Illustrator 15.0.0, SVG Export Plug-In . SVG Version: 6.00 Build 0)  -->
<!DOCTYPE svg PUBLIC "-//W3C//DTD SVG 1.1//EN" "http://www.w3.org/Graphics/SVG/1.1/DTD/svg11.dtd">
<svg version="1.1" id="Layer_1" xmlns="http://www.w3.org/2000/svg" xmlns:xlink="http://www.w3.org/1999/xlink" x="0px" y="0px"
	 width="330.5px" height="284.5px" viewBox="0 0 330.5 284.5" enable-background="new 0 0 330.5 284.5" xml:space="preserve">
<g>
	<path fill="none" d="M221.13,63.231c-10.063-10.205-21.856-18.232-35.36-24.083c-13.519-5.851-27.91-8.806-43.203-8.806
		c-15.292,0-29.76,2.955-43.404,8.806c-13.627,5.85-25.544,13.877-35.734,24.082C53.225,73.437,45.196,85.354,39.332,98.98
		c-5.865,13.628-8.79,28.098-8.79,43.404c0,15.276,2.925,29.685,8.79,43.188c5.864,13.503,13.893,25.296,24.097,35.376
		c10.19,10.083,22.107,17.952,35.735,23.71c13.644,5.724,28.112,8.587,43.404,8.587c15.293,0,29.685-2.863,43.202-8.587
		c13.504-5.758,25.297-13.627,35.361-23.71c10.064-10.08,17.969-21.873,23.709-35.376c5.74-13.504,8.604-27.91,8.604-43.188
		c0-15.308-2.863-29.776-8.604-43.404C239.1,85.355,231.195,73.437,221.13,63.231z M173.152,211.178l-27.908-73.396l-42.83,68.048
		H70.679l61.561-103.612l-7.64-18.729h-19.51V61.333h39.001l46.642,119.261l21.035-6.472l8.025,23.304L173.152,211.178z"/>
	<path fill="#F26622" d="M322.643,31.305c-2.285-5.226-5.354-9.736-9.18-13.565c-3.827-3.825-8.354-6.813-13.564-8.992
		c-5.229-2.174-10.779-3.234-16.633-3.234H142.568c-18.869,0-36.652,3.546-53.345,10.702C72.531,23.341,58,33.142,45.646,45.648
		C33.279,58.125,23.462,72.656,16.196,89.24c-7.265,16.552-10.889,34.257-10.889,53.144c0,18.857,3.624,36.562,10.889,53.144
		c7.266,16.555,17.083,31.084,29.45,43.563C58,251.598,72.529,261.4,89.219,268.557c16.693,7.127,34.475,10.702,53.345,10.702
		c14.532,0,28.547-2.301,42.053-6.876c13.502-4.605,25.869-10.982,37.088-19.135c11.217-8.154,21.096-17.832,29.637-29.063
		c8.527-11.201,15.092-23.555,19.682-37.088L321.49,68.583c1.273-3.58,2.365-6.94,3.252-10.144
		c0.886-3.173,1.337-6.533,1.337-10.111C326.079,42.196,324.943,36.535,322.643,31.305z M244.84,185.572
		c-5.74,13.503-13.645,25.296-23.709,35.376c-10.064,10.083-21.857,17.952-35.361,23.71c-13.517,5.724-27.909,8.587-43.202,8.587
		c-15.292,0-29.76-2.863-43.404-8.587c-13.628-5.758-25.545-13.627-35.735-23.71c-10.204-10.08-18.233-21.873-24.097-35.376
		c-5.865-13.504-8.79-27.912-8.79-43.188c0-15.306,2.925-29.776,8.79-43.404c5.864-13.626,13.893-25.543,24.097-35.75
		c10.19-10.205,22.107-18.232,35.734-24.082c13.644-5.851,28.112-8.806,43.404-8.806c15.293,0,29.684,2.955,43.203,8.806
		c13.504,5.851,25.297,13.878,35.36,24.083c10.065,10.206,17.97,22.124,23.709,35.75c5.741,13.628,8.604,28.096,8.604,43.404
		C253.443,157.662,250.58,172.068,244.84,185.572z M287.689,80.263c-3.359,2.85-8.221,4.275-14.58,4.275
		c-3.118,0-5.774-0.301-7.965-0.9c-2.189-0.599-3.975-1.589-5.354-2.97c-1.381-1.379-2.387-3.209-3.016-5.49
		c-0.631-2.28-0.944-5.099-0.944-8.46h12.688c0,1.021,0.016,2.056,0.045,3.105c0.03,1.05,0.211,1.98,0.541,2.79
		c0.328,0.81,0.854,1.471,1.574,1.979c0.721,0.51,1.771,0.765,3.15,0.765c1.439,0,2.579-0.299,3.42-0.9
		c0.84-0.599,1.454-1.364,1.846-2.295c0.389-0.93,0.645-1.98,0.764-3.15c0.121-1.17,0.182-2.295,0.182-3.375
		c0-2.28-0.195-4.064-0.585-5.355c-0.392-1.29-1.052-2.25-1.979-2.88c-0.932-0.63-2.146-1.02-3.646-1.17
		c-1.5-0.149-3.36-0.225-5.58-0.225v-9.99c2.039,0.121,3.765,0.105,5.175-0.045c1.409-0.149,2.521-0.54,3.33-1.17
		c0.811-0.63,1.396-1.589,1.755-2.88c0.36-1.29,0.54-3.015,0.54-5.175c0-0.839-0.045-1.71-0.135-2.61s-0.314-1.71-0.675-2.43
		c-0.36-0.72-0.855-1.305-1.485-1.755c-0.63-0.45-1.484-0.675-2.564-0.675c-1.142,0-2.041,0.211-2.699,0.63
		c-0.661,0.42-1.156,0.976-1.485,1.665c-0.331,0.69-0.54,1.471-0.63,2.34c-0.09,0.871-0.135,1.755-0.135,2.655H256.55
		c0-3.24,0.36-5.924,1.08-8.055c0.72-2.129,1.8-3.825,3.24-5.085c1.44-1.2,3.284-2.055,5.534-2.565
		c2.25-0.509,4.965-0.765,8.146-0.765c5.88,0,10.216,1.291,13.005,3.87c2.791,2.58,4.187,6.871,4.187,12.87
		c0,1.5-0.121,3.015-0.36,4.545c-0.24,1.53-0.689,2.956-1.352,4.275c-0.659,1.32-1.545,2.445-2.653,3.375
		c-1.11,0.931-2.506,1.516-4.187,1.755v0.18c2.039,0.36,3.69,1.021,4.951,1.98c1.26,0.96,2.219,2.13,2.879,3.51
		c0.66,1.381,1.109,2.911,1.352,4.59c0.238,1.681,0.359,3.42,0.359,5.22C292.73,72.748,291.049,77.414,287.689,80.263z"/>
	<polygon fill="#F26622" points="190.732,180.594 144.091,61.333 105.09,61.333 105.09,83.489 124.6,83.489 132.24,102.218 
		70.679,205.83 102.414,205.83 145.244,137.782 173.152,211.178 219.793,197.426 211.768,174.122 	"/>
</g>
</svg>
