<?xml version="1.0" encoding="UTF-8" standalone="no"?><!DOCTYPE svg PUBLIC "-//W3C//DTD SVG 1.1//EN" "http://www.w3.org/Graphics/SVG/1.1/DTD/svg11.dtd"><!-- Generated by graphviz version 2.40.1 (20161225.0304)
 --><!-- Title: G Pages: 1 --><svg xmlns="http://www.w3.org/2000/svg" xmlns:xlink="http://www.w3.org/1999/xlink" width="192pt" height="188pt" viewBox="0.00 0.00 192.38 188.00">
<g id="graph0" class="graph" transform="scale(1 1) rotate(0) translate(4 184)">
<title>G</title>
<polygon fill="#ffffff" stroke="transparent" points="-4,4 -4,-184 188.3801,-184 188.3801,4 -4,4"/>
<!-- = -->
<g id="node1" class="node">
<title>=</title>
<ellipse fill="none" stroke="#000000" cx="79.3801" cy="-162" rx="27" ry="18"/>
<text text-anchor="middle" x="79.3801" y="-157.8" font-family="Times,serif" font-size="14.00" fill="#000000">=</text>
</g>
<!-- answer -->
<g id="node2" class="node">
<title>answer</title>
<ellipse fill="none" stroke="#000000" cx="38.3801" cy="-90" rx="38.2607" ry="18"/>
<text text-anchor="middle" x="38.3801" y="-85.8" font-family="Times,serif" font-size="14.00" fill="#000000">answer</text>
</g>
<!-- =&#45;&gt;answer -->
<g id="edge1" class="edge">
<title>=-&gt;answer</title>
<path fill="none" stroke="#000000" d="M69.6637,-144.937C64.7826,-136.3654 58.7613,-125.7914 53.309,-116.2165"/>
<polygon fill="#000000" stroke="#000000" points="56.3015,-114.3986 48.3116,-107.4407 50.2186,-117.8625 56.3015,-114.3986"/>
</g>
<!-- * -->
<g id="node3" class="node">
<title>*</title>
<ellipse fill="none" stroke="#000000" cx="121.3801" cy="-90" rx="27" ry="18"/>
<text text-anchor="middle" x="121.3801" y="-85.8" font-family="Times,serif" font-size="14.00" fill="#000000">*</text>
</g>
<!-- =&#45;&gt;* -->
<g id="edge2" class="edge">
<title>=-&gt;*</title>
<path fill="none" stroke="#000000" d="M89.3336,-144.937C94.4072,-136.2393 100.6835,-125.4799 106.3332,-115.7948"/>
<polygon fill="#000000" stroke="#000000" points="109.4827,-117.3419 111.4982,-106.9405 103.4362,-113.8148 109.4827,-117.3419"/>
</g>
<!-- 21 -->
<g id="node4" class="node">
<title>21</title>
<ellipse fill="none" stroke="#000000" cx="85.3801" cy="-18" rx="27" ry="18"/>
<text text-anchor="middle" x="85.3801" y="-13.8" font-family="Times,serif" font-size="14.00" fill="#000000">21</text>
</g>
<!-- *&#45;&gt;21 -->
<g id="edge3" class="edge">
<title>*-&gt;21</title>
<path fill="none" stroke="#000000" d="M112.6656,-72.5708C108.4205,-64.0807 103.2266,-53.6929 98.5139,-44.2674"/>
<polygon fill="#000000" stroke="#000000" points="101.6172,-42.6477 94.0145,-35.2687 95.3562,-45.7782 101.6172,-42.6477"/>
</g>
<!-- 2 -->
<g id="node5" class="node">
<title>2</title>
<ellipse fill="none" stroke="#000000" cx="157.3801" cy="-18" rx="27" ry="18"/>
<text text-anchor="middle" x="157.3801" y="-13.8" font-family="Times,serif" font-size="14.00" fill="#000000">2</text>
</g>
<!-- *&#45;&gt;2 -->
<g id="edge4" class="edge">
<title>*-&gt;2</title>
<path fill="none" stroke="#000000" d="M130.0947,-72.5708C134.3398,-64.0807 139.5337,-53.6929 144.2464,-44.2674"/>
<polygon fill="#000000" stroke="#000000" points="147.4041,-45.7782 148.7458,-35.2687 141.1431,-42.6477 147.4041,-45.7782"/>
</g>
</g>
</svg>