<?xml version="1.0" standalone="no"?>
<!DOCTYPE svg PUBLIC "-//W3C//DTD SVG 20010904//EN"
 "http://www.w3.org/TR/2001/REC-SVG-20010904/DTD/svg10.dtd">
<svg version="1.0" xmlns="http://www.w3.org/2000/svg"
 width="800.000000pt" height="800.000000pt" viewBox="0 0 800.000000 800.000000"
 preserveAspectRatio="xMidYMid meet">
<metadata>
Created by potrace 1.11, written by Peter Selinger 2001-2013
</metadata>
<g transform="translate(0.000000,800.000000) scale(0.100000,-0.100000)"
fill="#000000" stroke="none">
<path d="M0 7144 l0 -855 23 3 c15 2 25 14 33 38 9 27 19 36 45 43 63 15 66
18 32 32 -41 18 -42 35 -3 35 19 0 30 5 30 14 0 10 14 16 43 19 l42 4 -42 1
c-44 2 -60 23 -28 36 22 8 18 26 -5 26 -11 0 -20 5 -20 10 0 6 11 10 25 10 14
0 25 -4 25 -10 0 -5 9 -10 20 -10 23 0 27 29 8 48 -9 9 -9 12 0 12 7 0 12 9
12 20 0 11 7 20 15 20 11 0 15 -11 15 -40 l0 -40 50 0 50 0 0 40 c0 29 4 40
15 40 8 0 15 5 15 11 0 6 -7 9 -15 5 -22 -8 -45 4 -45 24 0 20 23 32 45 24 12
-5 15 4 15 45 0 51 13 69 23 31 6 -24 32 -27 41 -4 9 22 -21 74 -43 74 -10 0
-21 -7 -25 -15 -3 -8 -12 -15 -21 -15 -8 0 -15 7 -15 15 0 8 4 15 10 15 5 0
22 14 37 31 40 45 103 75 103 49 0 -5 -7 -10 -15 -10 -8 0 -15 -9 -15 -20 0
-11 4 -20 8 -20 5 0 13 -38 18 -85 8 -70 7 -88 -5 -100 -13 -13 -12 -17 5 -36
l19 -22 -40 6 c-22 3 -32 3 -22 1 9 -3 17 -10 17 -15 0 -5 18 -9 40 -9 46 0
48 5 18 37 -20 22 -20 24 -4 42 9 10 13 21 7 22 -5 2 -11 44 -12 94 -3 77 -1
90 13 93 12 2 18 -6 20 -30 l4 -33 13 27 c12 24 12 31 -3 53 -9 14 -23 25 -31
25 -8 0 -15 5 -15 10 0 6 -12 15 -27 21 l-28 11 30 14 c45 20 55 17 55 -16 0
-39 35 -43 44 -5 4 14 13 25 21 25 8 0 15 7 15 15 0 8 8 15 17 15 14 0 15 2 4
13 -11 10 -14 10 -18 0 -3 -7 -15 -13 -27 -13 -12 0 -27 -5 -33 -11 -20 -20
-44 13 -33 47 4 16 9 21 9 12 1 -14 10 -18 41 -18 33 0 40 3 40 20 0 27 14 25
34 -5 21 -32 46 -33 46 -1 0 17 7 26 24 30 22 5 24 13 31 86 6 72 17 99 27 69
2 -6 2 24 0 66 -3 48 0 81 7 88 6 6 11 19 11 29 0 9 9 22 20 28 11 6 20 17 20
25 0 8 5 15 10 15 6 0 10 -5 10 -12 0 -9 3 -9 12 0 7 7 20 12 30 12 10 0 18 7
18 15 0 8 6 25 13 36 10 17 10 23 0 26 -15 6 -18 83 -3 83 6 0 10 -18 10 -40
0 -29 4 -40 15 -40 19 0 19 -11 0 -36 -26 -34 -18 -44 35 -44 l50 0 0 39 c0
22 -4 41 -10 43 -5 2 -10 26 -11 55 -2 38 -6 53 -18 56 -13 4 -13 5 2 6 9 0
17 6 17 12 0 12 66 8 133 -7 21 -5 27 -3 27 10 0 12 -10 16 -40 16 -30 0 -40
4 -40 16 0 15 9 16 68 12 78 -6 92 -3 92 22 0 25 -14 28 -90 23 l-65 -5 -1 53
c0 30 1 44 4 32 2 -15 10 -23 23 -23 12 0 19 -7 19 -20 0 -11 7 -20 15 -20 8
0 15 9 15 20 0 11 -7 20 -15 20 -8 0 -15 9 -15 20 0 15 7 20 25 20 16 0 25 6
25 15 0 8 -4 15 -10 15 -5 0 -10 11 -10 25 l0 25 -600 0 -600 0 0 -856z m1055
706 c3 -5 1 -10 -4 -10 -6 0 -11 5 -11 10 0 6 2 10 4 10 3 0 8 -4 11 -10z m45
-59 c15 -28 13 -31 -20 -31 -16 0 -30 3 -30 6 0 12 21 44 30 44 5 0 14 -9 20
-19z m-63 -38 c-7 -6 -46 10 -41 18 3 5 14 3 24 -3 11 -7 18 -13 17 -15z m-47
-19 c0 -2 -7 -4 -15 -4 -8 0 -15 4 -15 10 0 5 7 7 15 4 8 -4 15 -8 15 -10z
m-120 -4 c0 -5 -4 -10 -10 -10 -5 0 -10 5 -10 10 0 6 5 10 10 10 6 0 10 -4 10
-10z m117 -36 c-3 -3 -12 -4 -19 -1 -8 3 -5 6 6 6 11 1 17 -2 13 -5z m-87 -53
c0 -22 -4 -43 -10 -46 -6 -4 -10 12 -10 39 0 25 5 46 10 46 6 0 10 -18 10 -39z
m-279 -49 c-7 -2 -18 1 -23 6 -8 8 -4 9 13 5 13 -4 18 -8 10 -11z m419 -19
c-1 -27 -1 -27 -15 -9 -19 25 -19 36 0 36 10 0 15 -10 15 -27z m-177 0 c-13
-2 -33 -2 -45 0 -13 2 -3 4 22 4 25 0 35 -2 23 -4z m-236 -49 c-3 -3 -12 -4
-19 -1 -8 3 -5 6 6 6 11 1 17 -2 13 -5z m173 -14 c0 -5 -2 -10 -4 -10 -3 0 -8
5 -11 10 -3 6 -1 10 4 10 6 0 11 -4 11 -10z m-35 -60 c3 -5 -1 -10 -10 -10 -9
0 -13 5 -10 10 3 6 8 10 10 10 2 0 7 -4 10 -10z m-48 -47 c-3 -10 -5 -4 -5 12
0 17 2 24 5 18 2 -7 2 -21 0 -30z m-87 7 c13 -9 13 -11 0 -20 -22 -15 -30 -12
-30 10 0 22 8 25 30 10z m110 -60 c0 -5 -4 -10 -10 -10 -5 0 -10 5 -10 10 0 6
5 10 10 10 6 0 10 -4 10 -10z m45 -30 c0 -8 -8 -16 -17 -18 -13 -2 -18 3 -18
18 0 15 5 20 18 18 9 -2 17 -10 17 -18z m-61 -16 c13 -5 16 -23 16 -95 0 -53
-4 -89 -10 -89 -5 0 -10 4 -10 9 0 5 -9 11 -20 14 -11 3 -20 10 -20 17 0 7 9
14 20 17 23 6 27 23 6 23 -9 0 -15 16 -18 48 -6 63 -1 70 36 56z m-163 -27
c-10 -9 -11 -8 -5 6 3 10 9 15 12 12 3 -3 0 -11 -7 -18z m34 -67 c3 -5 21 -10
38 -10 21 0 27 -3 19 -9 -15 -9 -92 9 -92 21 0 11 28 10 35 -2z m-100 -9 c3
-5 1 -12 -5 -16 -5 -3 -10 1 -10 9 0 18 6 21 15 7z m0 -71 c3 -5 1 -10 -4 -10
-6 0 -11 5 -11 10 0 6 2 10 4 10 3 0 8 -4 11 -10z m165 -6 c0 -2 -15 -4 -32
-3 -27 0 -29 2 -13 8 18 8 45 4 45 -5z m-140 -75 c0 -5 -4 -9 -10 -9 -5 0 -10
7 -10 16 0 8 5 12 10 9 6 -3 10 -10 10 -16z m-180 -125 c0 -8 -4 -14 -10 -14
-5 0 -10 9 -10 21 0 11 5 17 10 14 6 -3 10 -13 10 -21z m60 -15 c0 -11 -4 -17
-10 -14 -5 3 -10 13 -10 21 0 8 5 14 10 14 6 0 10 -9 10 -21z m-80 -39 c0 -5
-9 -10 -20 -10 -11 0 -20 5 -20 10 0 6 9 10 20 10 11 0 20 -4 20 -10z m-83
-66 c-3 -3 -12 -4 -19 -1 -8 3 -5 6 6 6 11 1 17 -2 13 -5z m3 -34 c0 -5 -5
-10 -11 -10 -5 0 -7 5 -4 10 3 6 8 10 11 10 2 0 4 -4 4 -10z m58 -38 c2 -7 -6
-12 -17 -12 -21 0 -27 11 -14 24 9 9 26 2 31 -12z m-58 -46 c0 -13 -39 -30
-49 -21 -5 6 29 34 42 35 4 0 7 -6 7 -14z m-55 -56 c-3 -5 -10 -10 -16 -10 -5
0 -9 5 -9 10 0 6 7 10 16 10 8 0 12 -4 9 -10z m-93 -42 c-9 -9 -12 -7 -12 12
0 19 3 21 12 12 9 -9 9 -15 0 -24z m41 -103 c8 -20 -7 -27 -35 -16 -17 7 -18
10 -5 10 9 1 17 6 17 11 0 15 17 12 23 -5z"/>
<path d="M1220 7975 c0 -18 5 -25 20 -25 11 0 20 -7 20 -15 0 -8 5 -15 10 -15
6 0 10 7 10 15 0 8 -4 15 -10 15 -5 0 -10 11 -10 25 0 18 -5 25 -20 25 -15 0
-20 -7 -20 -25z"/>
<path d="M1298 7993 c12 -2 32 -2 45 0 12 2 2 4 -23 4 -25 0 -35 -2 -22 -4z"/>
<path d="M1623 7993 c-32 -12 4 -38 38 -28 11 4 19 11 19 18 0 8 -3 8 -12 -1
-17 -17 -31 -15 -24 3 6 15 1 17 -21 8z"/>
<path d="M1675 7955 c-32 -25 -76 -51 -98 -57 -38 -11 -71 -48 -49 -56 5 -1
-15 -29 -47 -61 -31 -32 -65 -74 -76 -94 -11 -20 -36 -64 -56 -99 -54 -93
-107 -269 -117 -388 -13 -141 -4 -508 14 -597 2 -13 17 -36 33 -52 16 -17 33
-40 36 -52 4 -12 22 -45 40 -73 18 -28 42 -70 54 -93 31 -62 78 -111 132 -138
26 -14 77 -54 113 -90 76 -75 85 -99 113 -300 22 -169 22 -307 0 -372 -24 -69
-69 -128 -114 -152 -21 -10 -47 -28 -57 -40 -10 -11 -43 -32 -73 -46 -31 -14
-83 -52 -121 -89 -91 -87 -187 -161 -248 -190 -28 -13 -59 -37 -69 -52 -25
-39 -72 -80 -185 -161 -129 -93 -231 -159 -256 -167 -92 -28 -229 -315 -290
-606 -24 -113 -51 -437 -40 -467 3 -8 8 -121 11 -251 3 -130 7 -268 10 -307 5
-80 -6 -212 -26 -299 -13 -57 -13 -59 9 -74 20 -13 22 -22 21 -96 0 -44 -4
-90 -9 -101 -5 -11 -9 -14 -9 -7 -1 16 -71 16 -213 0 l-108 -11 0 -1159 0
-1158 2008 0 c1988 0 2008 0 2045 20 41 22 57 25 57 10 0 -5 -7 -10 -15 -10
-8 0 -15 -4 -15 -10 0 -7 161 -10 463 -10 384 0 467 3 490 15 29 15 57 11 57
-9 0 -6 4 -5 9 3 5 8 7 20 4 28 -9 24 17 13 29 -12 l11 -25 1429 0 1428 0 0
4000 0 4000 -3132 0 -3133 -1 -60 -44z m874 -152 c30 -8 73 -13 95 -12 47 3
82 -10 122 -43 99 -82 147 -172 193 -358 17 -69 34 -134 37 -145 2 -11 -3 -6
-13 12 -28 49 -86 83 -154 90 -74 7 -105 -1 -114 -29 -6 -20 -8 -21 -12 -5 -6
23 -22 18 -47 -16 -23 -31 -40 -152 -25 -179 5 -9 25 -29 44 -44 39 -30 58
-24 69 22 9 34 27 26 41 -17 7 -19 15 -33 18 -31 17 6 47 1 47 -8 0 -5 -20
-10 -44 -10 -25 0 -47 -3 -49 -8 -10 -16 31 -49 68 -56 37 -6 38 -5 21 8 -18
15 -18 16 8 27 28 13 31 20 16 35 -6 6 -3 14 10 22 19 11 21 9 27 -18 4 -22
10 -29 21 -25 8 3 23 -2 32 -10 14 -13 20 -14 26 -4 4 7 3 14 -3 16 -9 3 -9
24 3 81 9 43 20 21 21 -42 1 -37 12 -98 26 -143 43 -135 50 -192 45 -363 l-5
-159 -29 -23 c-16 -13 -32 -22 -37 -20 -5 1 -7 -6 -5 -15 1 -10 -1 -23 -5 -30
-4 -6 -9 -26 -11 -43 -4 -37 -23 -61 -30 -39 -12 40 -13 66 -6 151 6 67 5 96
-3 103 -7 6 -13 19 -14 30 -3 34 -30 89 -58 119 -40 43 -41 24 -2 -41 20 -32
31 -60 26 -61 -20 -7 -89 49 -109 87 -10 22 -25 41 -32 43 -7 3 1 16 21 34 31
28 33 34 27 67 -7 36 -22 46 -42 28 -13 -13 -103 5 -125 25 -28 25 -31 49 -14
89 8 21 15 48 15 60 0 30 -43 106 -81 143 l-31 30 18 31 c10 17 21 31 25 31 4
0 3 18 -2 40 -5 22 -8 45 -7 52 2 7 -7 14 -19 16 -26 4 -39 -31 -29 -73 9 -34
-4 -31 -36 9 -28 36 -61 44 -208 51 -30 1 -63 6 -73 10 -12 5 -28 1 -47 -14
-32 -23 -86 -27 -111 -8 -22 17 -33 87 -13 87 8 0 14 -7 14 -16 0 -28 22 -9
36 31 7 22 14 41 14 42 0 0 -8 -1 -19 -4 -27 -7 -35 14 -16 43 13 21 14 28 4
40 -8 9 -9 18 -3 22 5 4 9 16 9 27 0 14 9 22 30 26 28 6 29 7 8 14 -34 11 -40
45 -12 67 13 10 29 22 35 27 6 5 20 11 30 13 10 2 18 10 17 16 -2 7 8 12 22
12 14 0 25 4 25 9 0 6 16 7 35 4 33 -5 35 -4 35 21 0 20 4 27 18 24 20 -3 81
20 100 39 15 15 51 11 141 -14z m1025 -220 c14 -48 146 -560 146 -566 0 -4
-27 -7 -60 -7 l-59 0 -10 38 c-5 20 -12 49 -15 63 -7 32 -20 36 -106 35 -71
-1 -66 4 -90 -93 l-11 -43 -61 0 c-53 0 -60 2 -56 18 3 9 38 142 79 295 l74
277 82 0 c69 0 82 -3 87 -17z m2586 -278 l0 -295 -60 0 -60 0 -1 43 -1 42 -14
-33 c-39 -90 -196 -76 -243 22 -31 63 -30 241 0 304 48 97 198 110 242 21 16
-34 17 -33 17 79 l0 112 60 0 60 0 0 -295z m978 243 l-3 -53 -58 0 -57 1 2
-191 3 -190 58 0 57 0 0 -52 0 -53 -185 0 -185 0 0 50 0 50 60 0 59 0 3 175
c2 96 1 182 -2 192 -4 15 -16 18 -60 18 l-55 0 -3 53 -3 52 186 0 186 0 -3
-52z m532 -3 l0 -54 -77 -3 -78 -3 -3 -237 -2 -238 -60 0 -60 0 0 240 0 240
-80 0 -80 0 0 55 0 55 220 0 220 0 0 -55z m-3532 -102 c43 -32 61 -65 68 -125
l7 -58 -67 0 c-59 0 -66 2 -66 20 0 56 -51 98 -105 84 -44 -11 -55 -53 -55
-214 l0 -140 -60 0 -60 0 0 225 0 225 60 0 60 0 0 -37 c1 -38 1 -38 14 -13 33
59 144 78 204 33z m407 16 c54 -15 104 -54 121 -95 17 -41 19 -225 3 -257 -71
-137 -309 -142 -376 -7 -30 59 -32 203 -4 266 37 81 149 122 256 93z m1054
-16 c53 -39 61 -72 61 -260 l0 -173 -60 0 -60 0 0 155 c0 142 -2 157 -20 175
-27 27 -81 26 -106 -1 -17 -18 -19 -40 -22 -175 l-3 -154 -60 0 -59 0 0 225 0
225 60 0 60 0 0 -42 1 -43 14 33 c26 61 132 80 194 35z m-699 -130 c0 -175 7
-196 64 -201 25 -2 44 2 57 14 17 15 19 33 19 176 l0 158 65 0 65 0 0 -137
c-1 -207 -15 -253 -91 -298 -53 -31 -173 -28 -221 5 -67 45 -73 65 -76 258
l-4 172 61 0 61 0 0 -147z m-2955 50 c-26 -18 -38 -3 -23 29 12 26 13 26 27 6
13 -19 12 -22 -4 -35z m45 17 c0 -5 -4 -10 -10 -10 -5 0 -10 5 -10 10 0 6 5
10 10 10 6 0 10 -4 10 -10z m34 -141 c-6 -11 -24 -2 -24 11 0 5 7 7 15 4 8 -4
12 -10 9 -15z m831 -109 c3 -5 2 -10 -4 -10 -5 0 -13 5 -16 10 -3 6 -2 10 4
10 5 0 13 -4 16 -10z m-600 -130 c3 -5 -1 -10 -10 -10 -9 0 -13 5 -10 10 3 6
8 10 10 10 2 0 7 -4 10 -10z m125 -5 c10 -12 10 -25 1 -60 -10 -39 -9 -49 9
-82 19 -36 19 -37 1 -67 -11 -17 -31 -60 -46 -96 -40 -98 -55 -132 -69 -160
-7 -14 -19 -42 -25 -62 -20 -63 -55 -65 -41 -3 5 21 4 38 -2 41 -6 4 -8 23 -4
44 5 32 2 44 -20 70 -15 17 -32 29 -38 27 -14 -6 -37 11 -52 38 -7 12 -20 19
-31 17 -11 -1 -28 7 -38 18 -10 11 -24 20 -32 20 -7 0 -13 5 -13 10 0 6 -11
15 -25 20 -22 8 -24 13 -15 29 17 33 30 36 150 36 104 0 119 2 159 25 25 14
46 31 49 38 5 16 -27 15 -58 -3 -14 -8 -31 -14 -39 -15 -21 0 5 28 43 47 17 8
38 25 48 36 15 20 15 22 0 34 -15 10 -10 12 29 13 29 0 51 -6 59 -15z m-187
-2 c-7 -2 -19 -2 -25 0 -7 3 -2 5 12 5 14 0 19 -2 13 -5z m966 -377 c-3 -3
-16 -2 -29 1 -22 6 -22 7 -4 14 18 6 43 -5 33 -15z m1895 -22 c21 -20 20 -53
-1 -76 -23 -25 -87 -24 -113 2 -24 24 -25 38 -4 68 19 27 93 31 118 6z m-2679
-24 c3 -5 1 -10 -4 -10 -6 0 -11 5 -11 10 0 6 2 10 4 10 3 0 8 -4 11 -10z
m4192 -11 c107 -52 125 -194 37 -298 -25 -30 -141 -126 -190 -158 -15 -9 8
-12 119 -12 l137 -1 0 -50 0 -50 -209 0 -209 0 0 60 0 60 112 89 c61 49 124
102 139 118 57 61 43 145 -27 158 -42 8 -91 -15 -100 -48 -5 -21 -10 -23 -61
-21 -31 1 -58 4 -61 7 -3 3 -1 23 5 44 12 45 50 85 101 107 53 23 155 20 207
-5z m581 -36 l3 -53 -130 0 -131 0 0 -64 c0 -35 -3 -73 -7 -83 -5 -15 -2 -14
19 5 30 27 90 46 121 37 57 -16 94 -39 117 -72 22 -32 25 -48 25 -118 0 -74
-3 -85 -29 -119 -16 -21 -47 -47 -70 -57 -55 -25 -157 -25 -211 0 -38 17 -95
72 -95 91 0 5 -3 15 -6 24 -5 13 3 16 51 16 46 0 63 -5 87 -25 20 -17 42 -25
69 -25 64 0 99 51 85 125 -10 49 -43 69 -103 61 -27 -4 -76 -9 -110 -12 l-63
-6 0 166 0 166 188 -2 187 -3 3 -52z m422 52 c0 -3 -38 -60 -83 -128 -107
-156 -105 -152 -60 -121 32 21 46 25 86 21 109 -10 173 -113 142 -229 -24 -96
-102 -143 -223 -136 -122 7 -191 77 -192 195 0 75 31 147 121 284 l79 119 65
0 c36 0 65 -2 65 -5z m-4877 -67 c66 1 74 -12 17 -29 -30 -9 -49 -9 -85 1 -25
7 -45 16 -45 20 0 15 15 21 35 14 11 -4 46 -7 78 -6z m107 -33 c19 -23 8 -26
-20 -5 -19 15 -21 20 -9 20 9 0 22 -7 29 -15z m2262 -207 l3 -173 63 2 62 3 0
-55 0 -55 -201 0 -200 0 3 53 3 52 75 0 75 0 0 115 0 115 -67 3 -68 3 0 54 0
55 125 0 125 0 2 -172z m329 130 c0 -34 2 -39 9 -22 25 62 128 85 195 44 55
-34 65 -76 65 -268 l0 -167 -60 3 -60 4 0 149 c0 146 -1 151 -25 174 -29 30
-64 32 -96 6 -23 -19 -24 -25 -27 -179 -3 -143 -6 -160 -20 -157 -10 2 -36 4
-59 4 l-43 1 0 225 0 225 60 0 60 0 1 -42z m-3841 -34 c0 -3 -7 -1 -15 6 -8 7
-15 17 -15 22 0 5 7 3 15 -6 8 -8 15 -18 15 -22z m1148 -22 c12 -1 22 -6 22
-11 0 -5 -10 -12 -22 -16 -22 -7 -22 -8 6 -12 38 -6 76 4 76 20 0 25 45 13 79
-21 32 -34 33 -37 27 -91 -4 -34 -14 -63 -26 -76 -11 -12 -20 -24 -20 -28 0
-23 -98 -96 -108 -80 -12 17 -37 21 -92 12 -35 -5 -58 -5 -66 2 -7 6 -22 8
-33 4 -12 -3 -31 1 -45 10 -14 9 -29 14 -35 11 -13 -8 -41 4 -41 17 0 6 -7 18
-16 28 -14 15 -12 17 21 21 20 2 48 -2 62 -9 17 -9 30 -10 43 -3 10 6 58 10
106 10 100 0 174 26 174 61 0 10 -5 19 -11 19 -7 0 -9 10 -5 24 6 24 5 25 -51
21 -59 -4 -226 20 -253 36 -12 7 -10 8 7 9 12 0 25 5 28 10 3 6 14 10 23 10
15 0 15 -2 2 -10 -8 -5 -10 -10 -5 -10 6 0 23 10 38 23 27 21 45 24 115 19z
m319 -84 c-3 -7 -5 -2 -5 12 0 14 2 19 5 13 2 -7 2 -19 0 -25z m-578 -17 c-8
-2 -20 -12 -27 -23 -7 -10 -19 -18 -26 -18 -8 0 -16 -7 -20 -15 -3 -8 -14 -15
-25 -15 -26 0 -36 41 -14 58 9 6 13 12 7 12 -5 1 5 7 21 14 22 9 39 10 64 2
18 -5 27 -12 20 -15z m591 -30 c0 -5 -9 -19 -21 -32 l-20 -24 17 33 c19 33 24
38 24 23z m-640 -56 c-7 -8 -17 -12 -22 -9 -6 4 -5 10 3 15 22 14 33 10 19 -6z
m635 -300 c15 -60 31 -118 37 -129 6 -11 8 -106 4 -250 l-5 -231 14 125 c7 69
14 169 14 223 1 53 3 97 6 97 10 0 141 -75 147 -84 4 -6 8 -32 8 -57 0 -64
-73 -209 -137 -274 -143 -143 -403 -249 -679 -277 -118 -12 -172 -6 -170 20 2
30 46 91 69 94 25 4 78 -12 99 -30 36 -29 92 -44 145 -37 29 3 55 11 58 16 4
5 1 9 -4 9 -20 0 -11 38 9 43 13 3 18 10 14 21 -3 9 -1 16 5 16 6 0 11 14 11
30 0 17 4 38 9 48 9 16 21 47 26 65 2 4 4 8 5 10 1 1 3 22 4 47 1 34 -4 52
-22 74 -19 23 -23 37 -18 65 3 19 1 40 -3 45 -6 7 2 23 20 44 29 32 46 42 33
20 -4 -7 21 14 55 47 34 33 69 76 78 95 9 19 23 39 30 43 7 4 13 16 13 27 0
10 6 25 14 32 7 8 16 23 20 35 4 11 18 33 32 48 16 17 23 34 19 44 -4 10 -3
12 3 6 5 -5 22 -59 37 -120z m4125 -600 l0 -295 -60 0 -60 0 0 43 0 42 -17
-34 c-37 -74 -149 -80 -214 -11 -43 45 -49 71 -49 198 0 77 4 104 21 139 46
96 188 114 239 31 l20 -33 0 108 0 107 60 0 60 0 0 -295z m-2536 142 c25 -17
66 -72 66 -89 0 -15 -121 -9 -136 7 -16 15 -97 21 -128 9 -22 -9 -21 -61 2
-68 9 -3 49 -10 87 -16 89 -14 134 -36 163 -80 42 -63 13 -158 -57 -187 -49
-21 -176 -28 -229 -14 -51 14 -99 55 -108 94 l-6 27 57 0 c42 0 64 -5 82 -20
18 -14 41 -20 74 -20 47 0 89 23 89 49 0 19 -32 40 -68 46 -145 21 -177 34
-208 81 -22 32 -21 107 1 140 31 47 88 65 196 62 71 -3 103 -8 123 -21z m437
11 c87 -29 128 -91 129 -190 l0 -58 -145 0 -145 0 0 -35 c0 -49 29 -75 83 -75
24 0 52 7 63 15 18 14 134 22 134 9 0 -17 -36 -62 -64 -82 -104 -71 -270 -41
-321 59 -20 38 -21 229 -1 267 44 84 166 125 267 90z m514 -7 c38 -17 105 -81
105 -101 0 -4 3 -15 6 -24 5 -14 -3 -16 -52 -16 -50 0 -63 4 -83 25 -18 20
-33 25 -69 25 -72 0 -82 -15 -82 -126 0 -85 2 -94 22 -108 12 -9 40 -16 61
-16 30 0 45 7 67 30 25 26 35 30 84 30 32 0 56 -4 56 -10 0 -6 -9 -28 -20 -50
-61 -119 -242 -145 -344 -50 l-41 39 -3 123 c-4 152 7 179 88 221 65 33 144
36 205 8z m527 -17 c63 -45 78 -82 78 -194 0 -121 -22 -172 -90 -210 -65 -35
-167 -35 -230 0 -70 39 -90 84 -90 203 0 107 12 147 53 185 40 38 94 53 170
48 56 -3 76 -9 109 -32z m504 5 c50 -47 54 -65 54 -254 l0 -175 -60 0 -60 0 0
153 c0 177 -7 197 -67 197 -68 0 -73 -13 -73 -192 l0 -158 -65 0 -65 0 0 225
0 225 60 0 60 0 0 -42 1 -43 14 32 c19 45 59 64 123 60 38 -3 59 -10 78 -28z
m981 12 c38 -18 73 -61 73 -91 0 -17 -115 -13 -130 5 -13 15 -102 21 -134 9
-19 -7 -21 -47 -3 -63 8 -6 46 -15 85 -21 147 -21 199 -65 190 -161 -6 -64
-35 -95 -107 -116 -71 -20 -182 -13 -238 16 -34 17 -73 68 -73 95 0 3 25 6 56
6 41 0 63 -5 81 -20 28 -22 110 -28 144 -10 22 13 25 52 4 70 -8 6 -49 16 -91
21 -42 6 -94 19 -115 30 -94 48 -92 181 4 228 57 28 193 29 254 2z m-4510
-363 c-2 -13 -4 -5 -4 17 -1 22 1 32 4 23 2 -10 2 -28 0 -40z m-1082 -4 c8 3
15 1 15 -4 0 -6 14 -10 31 -10 20 0 28 4 23 11 -4 7 -1 10 7 7 8 -3 13 -12 11
-19 -2 -9 4 -7 17 5 14 13 21 15 21 6 0 -7 7 -10 16 -6 9 4 28 -1 41 -9 13 -9
28 -13 33 -10 5 3 12 0 16 -6 9 -16 -122 -6 -223 17 -68 15 -73 18 -73 43 l1
26 25 -28 c14 -17 31 -27 39 -23z m-85 26 c8 -5 11 -12 7 -16 -3 -4 -12 -2
-19 3 -7 6 -22 13 -33 16 -16 4 -16 5 5 6 14 0 32 -3 40 -9z m1167 -72 c-3 -8
-6 -5 -6 6 -1 11 2 17 5 13 3 -3 4 -12 1 -19z m3 -148 c0 -26 -3 -31 -10 -20
-5 8 -10 31 -10 50 0 26 3 31 10 20 5 -8 10 -31 10 -50z m-13 -222 c-3 -8 -6
-5 -6 6 -1 11 2 17 5 13 3 -3 4 -12 1 -19z m-10 -130 c-2 -13 -4 -5 -4 17 -1
22 1 32 4 23 2 -10 2 -28 0 -40z m-13 -124 c-5 -44 -10 -70 -12 -60 -5 23 8
149 14 143 3 -3 2 -40 -2 -83z m-37 -496 c-2 -18 -4 -6 -4 27 0 33 2 48 4 33
2 -15 2 -42 0 -60z m-1402 23 c3 -5 0 -13 -6 -17 -6 -3 -17 -22 -25 -41 -8
-18 -25 -38 -38 -43 -13 -5 -34 -22 -47 -38 -29 -35 -64 -56 -101 -58 -34 -2
-35 12 -5 57 14 21 39 40 66 50 27 10 57 32 78 57 33 40 65 53 78 33z m325
-96 c46 -24 73 -70 66 -110 -6 -30 -4 -35 12 -35 20 0 62 -41 81 -78 15 -28 6
-72 -19 -105 l-20 -25 29 -5 c48 -10 85 -57 105 -133 52 -203 53 -221 19 -268
-131 -180 -270 -259 -351 -199 -39 29 -49 50 -34 73 17 28 16 30 -16 30 -28 0
-102 34 -114 54 -15 22 -8 58 17 90 14 18 25 39 25 47 0 12 -2 12 -10 -1 -12
-19 -75 -16 -115 4 -17 9 -35 16 -41 16 -13 0 -29 114 -19 130 10 16 85 52 98
47 15 -5 82 20 129 50 21 13 47 41 58 63 11 22 40 62 64 89 41 46 64 87 53 97
-2 2 -25 -14 -51 -37 -40 -36 -51 -40 -79 -35 -19 3 -49 17 -67 31 -43 32 -75
32 -104 0 -13 -14 -29 -25 -35 -25 -7 0 -10 -4 -6 -10 3 -5 -8 -16 -24 -25
-16 -8 -36 -23 -43 -33 -7 -10 -21 -21 -31 -25 -10 -4 -17 -12 -15 -19 2 -6
-2 -19 -9 -27 -8 -9 -22 -27 -32 -41 -16 -21 -22 -23 -42 -13 -45 22 -86 23
-111 4 -34 -27 -56 -23 -50 8 7 37 19 49 76 78 28 14 60 33 71 43 11 9 48 33
82 53 61 35 254 180 302 227 32 30 107 38 151 15z m3626 -95 c9 -19 38 -98 65
-174 56 -158 135 -314 219 -431 75 -104 87 -129 100 -209 6 -37 17 -97 26
-133 21 -91 34 -473 17 -491 -17 -18 -16 -25 2 -18 13 4 15 -7 15 -73 0 -101
-18 -194 -36 -187 -9 3 -14 -2 -14 -15 0 -11 -4 -18 -8 -15 -4 2 -14 -16 -21
-42 -7 -26 -24 -69 -37 -96 -14 -26 -23 -51 -20 -54 3 -3 1 -11 -5 -18 -6 -7
-7 -28 -3 -49 5 -27 9 -33 16 -23 7 9 8 5 4 -12 -4 -14 -13 -61 -22 -105 -8
-44 -21 -110 -29 -146 -8 -37 -15 -85 -15 -108 0 -50 -20 -100 -59 -149 -16
-21 -51 -80 -77 -132 -27 -52 -52 -96 -56 -98 -4 -2 -5 -9 -2 -16 3 -8 -2 -20
-10 -29 -9 -9 -16 -20 -16 -26 0 -6 -6 -10 -12 -9 -7 2 -12 -5 -10 -14 2 -10
-1 -18 -7 -18 -5 0 -18 -17 -28 -37 -49 -95 -67 -125 -79 -130 -7 -2 -15 -17
-19 -31 -3 -15 -14 -38 -24 -51 -15 -20 -21 -22 -39 -12 -18 10 -20 15 -10 42
12 35 15 32 -40 46 -36 9 -48 7 -82 -9 -22 -11 -40 -25 -40 -32 0 -7 -18 -30
-40 -51 -22 -21 -40 -45 -40 -52 0 -7 -5 -13 -11 -13 -5 0 -8 -4 -5 -9 3 -4
-2 -15 -12 -23 -25 -21 -142 -88 -154 -88 -6 0 -8 -9 -5 -20 8 -31 -10 -24
-21 8 -9 26 -5 33 47 88 58 62 132 124 148 124 18 0 123 109 123 128 0 21 -22
45 -36 40 -17 -5 -109 26 -117 39 -16 27 -37 14 -37 -23 0 -21 4 -33 10 -29
21 13 9 -13 -30 -65 -22 -29 -40 -57 -40 -61 0 -13 -87 -99 -99 -99 -6 0 -11
-5 -11 -11 0 -6 -9 -9 -19 -6 -15 3 -24 -6 -42 -39 -24 -47 -46 -55 -74 -28
-8 9 -33 18 -54 21 -35 5 -40 2 -70 -35 -20 -26 -53 -51 -89 -67 -31 -14 -59
-30 -62 -34 -3 -5 -27 -15 -55 -23 -38 -10 -50 -19 -55 -37 -3 -14 -11 -26
-18 -29 -18 -6 -15 37 3 44 8 4 15 12 15 19 0 16 63 68 145 120 33 21 62 40
65 44 3 3 32 26 65 51 33 25 87 73 122 107 34 35 64 63 67 63 4 0 14 7 24 15
58 51 76 65 83 65 5 0 9 11 9 25 0 21 9 29 46 45 42 18 45 22 42 52 -2 25 -11
36 -43 54 -22 13 -50 23 -62 24 -20 0 -27 9 -25 32 1 3 -5 9 -14 12 -20 8 -48
-57 -39 -91 4 -16 -3 -38 -21 -68 -16 -28 -23 -52 -19 -64 5 -16 0 -22 -22
-27 -15 -4 -39 -18 -52 -31 -13 -12 -28 -23 -32 -23 -5 0 -9 -6 -9 -13 0 -7
-8 -22 -17 -33 -10 -11 -23 -29 -29 -40 -6 -10 -20 -21 -30 -22 -15 -3 -17 -1
-6 9 20 21 15 47 -10 46 -13 0 -43 2 -67 6 -24 3 -49 3 -57 0 -17 -6 -18 -55
-2 -71 15 -15 4 -26 -44 -42 -26 -8 -38 -17 -38 -30 0 -10 -4 -21 -10 -25 -5
-3 -7 -12 -4 -20 5 -13 -22 -34 -41 -32 -5 1 -11 -11 -13 -28 -6 -67 -36 -89
-76 -56 -28 23 -20 78 23 145 41 65 93 121 214 230 55 49 77 76 77 93 0 13 19
59 41 101 56 105 74 139 98 193 18 38 32 52 80 78 32 17 61 31 64 31 2 0 -1
-17 -9 -37 -7 -21 -13 -48 -14 -60 0 -12 -13 -42 -30 -66 -16 -25 -30 -51 -30
-58 0 -7 14 1 30 19 17 18 30 40 30 49 0 8 9 26 19 39 11 13 22 46 26 73 9 65
43 101 123 132 34 13 62 27 62 31 0 4 6 5 14 2 14 -5 20 -1 54 44 11 15 28 24
50 24 24 1 41 11 67 40 19 21 35 45 35 53 0 9 6 18 14 21 12 5 27 33 57 112
12 30 11 45 -1 37 -5 -3 -10 3 -10 14 0 14 6 21 20 21 11 0 20 3 21 8 1 4 3
29 5 56 3 27 11 63 19 80 28 61 55 137 55 156 0 10 4 20 9 22 14 5 17 51 4 55
-8 3 -13 -4 -13 -16 0 -11 -4 -22 -8 -25 -10 -6 -13 99 -6 162 4 28 10 42 17
39 9 -3 11 7 9 35 -3 22 1 45 7 51 16 16 14 87 -3 93 -17 6 -14 77 4 99 6 7
13 36 17 64 4 33 10 51 19 51 8 0 14 7 14 15 0 8 -4 15 -10 15 -12 0 -13 37
-1 44 13 8 6 109 -8 114 -16 5 -14 39 3 45 7 3 17 26 20 51 4 25 12 45 18 43
6 -1 13 4 15 11 3 7 -4 12 -15 12 -26 0 -33 20 -26 73 6 51 3 56 -61 86 -27
12 -58 27 -67 32 -10 5 -29 9 -43 9 -18 0 -25 5 -25 20 0 11 -6 20 -14 20 -8
0 -23 10 -33 23 -10 13 -39 36 -65 51 -52 30 -61 46 -49 79 20 51 32 98 35
129 3 41 9 51 60 111 36 44 57 59 206 147 73 43 68 45 106 -40z m-2538 -190
c-4 -8 -7 41 -6 110 l2 125 6 -110 c3 -60 2 -117 -2 -125z m-2078 -1100 c-6
-11 -15 -20 -19 -20 -21 0 -20 36 1 79 l23 46 3 -42 c2 -23 -2 -51 -8 -63z
m687 5 c-5 -37 -17 -42 -17 -7 0 18 5 32 10 32 6 0 9 -11 7 -25z m13 -104 c0
-14 -5 -33 -10 -41 -8 -11 -9 -8 -4 13 9 40 -4 33 -22 -13 -9 -22 -20 -40 -25
-40 -12 0 -11 3 5 47 8 21 17 51 21 68 6 29 7 29 21 11 8 -11 14 -31 14 -45z
m1367 -133 c-2 -13 -4 -3 -4 22 0 25 2 35 4 23 2 -13 2 -33 0 -45z m-2279 15
c-2 -10 -15 -18 -33 -20 -16 -2 -34 -8 -40 -12 -15 -12 -55 -20 -55 -12 0 4
18 14 40 21 22 7 40 17 40 21 0 7 19 14 43 18 5 0 7 -6 5 -16z m-18 -43 c0 -5
-9 -10 -21 -10 -11 0 -17 5 -14 10 3 6 13 10 21 10 8 0 14 -4 14 -10z m-53
-27 c4 -10 -37 -26 -45 -18 -3 3 1 12 8 20 14 17 31 16 37 -2z m2360 -50 c-3
-10 -5 -2 -5 17 0 19 2 27 5 18 2 -10 2 -26 0 -35z m-2367 8 c0 -12 -28 -22
-34 -12 -3 5 -3 11 1 15 9 9 33 7 33 -3z m5311 -144 c-10 -9 -11 -8 -5 6 3 10
9 15 12 12 3 -3 0 -11 -7 -18z m-5581 -132 c0 -8 -4 -15 -10 -15 -5 0 -7 7 -4
15 4 8 8 15 10 15 2 0 4 -7 4 -15z m5545 6 c3 -5 1 -12 -5 -16 -5 -3 -10 1
-10 9 0 18 6 21 15 7z m-29 -92 c-8 -19 -15 -26 -15 -17 -1 23 20 75 26 62 2
-7 -3 -27 -11 -45z m-5398 -381 c-3 -32 -5 -33 -50 -36 l-47 -3 -3 -147 -3
-147 -37 -3 -38 -3 0 150 0 151 -50 0 -50 0 0 35 0 35 141 0 140 0 -3 -32z
m242 -63 c48 -25 60 -51 60 -135 0 -79 -12 -106 -57 -129 -33 -17 -120 -14
-150 6 -76 50 -69 224 11 259 41 18 100 17 136 -1z m173 -9 c-1 -16 1 -15 18
3 25 26 55 27 71 2 12 -20 12 -20 26 0 16 23 55 25 76 3 13 -12 16 -41 16
-145 l0 -129 -30 0 -29 0 -3 118 c-2 96 -6 117 -18 117 -12 0 -16 -21 -18
-117 l-3 -118 -29 0 -29 0 -3 118 c-2 96 -6 117 -18 117 -12 0 -16 -21 -18
-117 l-3 -118 -29 0 c-20 0 -30 5 -30 15 -1 8 -1 71 -1 140 0 69 0 127 1 129
0 3 12 4 28 2 19 -1 27 -7 25 -20z m468 1 l34 -23 5 -99 c8 -137 6 -145 -36
-145 -30 0 -34 3 -34 26 l0 27 -21 -27 c-17 -21 -29 -26 -67 -26 -85 0 -122
74 -68 136 20 24 32 28 90 32 54 4 66 8 66 21 0 9 -5 22 -12 29 -15 15 -64 16
-73 2 -6 -10 -85 -14 -85 -4 0 18 26 48 53 59 49 22 109 18 148 -8z m305 13
c29 -11 53 -37 54 -57 0 -18 -60 -16 -84 2 -25 19 -57 19 -81 1 -29 -21 -5
-42 57 -50 28 -4 64 -16 80 -28 26 -18 29 -25 26 -66 -4 -64 -32 -83 -125 -83
-77 0 -105 11 -123 49 -10 24 -10 24 32 19 24 -3 55 -8 70 -12 41 -11 78 2 78
25 0 13 -9 21 -27 25 -137 29 -153 39 -153 95 0 62 36 89 117 90 28 0 64 -5
79 -10z m352 -29 c3 -29 -4 -41 -50 -90 -98 -103 -97 -96 -15 -96 l72 0 3 -32
3 -33 -125 0 -126 0 0 31 c0 24 15 47 70 107 l70 77 -65 3 c-64 3 -65 3 -65
31 0 15 3 31 7 35 4 3 54 5 112 4 l106 -3 3 -34z m-376 -525 c11 -16 10 -23
-8 -40 -35 -36 -80 -11 -75 41 2 24 67 23 83 -1z m922 11 c40 -29 -2 -80 -48
-59 -30 13 -34 46 -8 61 23 14 35 13 56 -2z m-2210 -154 l45 -138 1 138 0 137
30 0 30 0 0 -186 0 -185 -47 3 -47 3 -42 130 -43 130 0 -132 -1 -133 -35 0
-35 0 0 185 0 185 49 0 49 0 46 -137z m876 42 c0 -93 1 -95 23 -95 18 0 29 11
47 50 23 49 25 50 67 50 24 0 43 -2 43 -4 0 -3 -17 -33 -37 -68 l-37 -62 37
-68 c20 -37 37 -70 37 -73 0 -3 -18 -5 -39 -5 -37 0 -41 3 -71 55 -21 37 -38
55 -51 55 -16 0 -19 -7 -19 -55 l0 -55 -40 0 -40 0 0 185 0 185 40 0 40 0 0
-95z m-159 -14 c21 -22 29 -39 29 -65 0 -35 -1 -36 -40 -36 -32 0 -40 4 -40
19 0 26 -24 43 -57 39 l-28 -3 -3 -107 -3 -108 -39 0 -40 0 0 140 0 140 35 0
c30 0 35 -4 35 -22 1 -21 1 -21 11 -5 26 44 99 48 140 8z m884 15 c43 -19 68
-57 69 -109 l1 -42 -92 -3 c-101 -3 -113 -12 -73 -52 23 -23 45 -25 80 -5 32
18 80 19 80 2 0 -21 -43 -56 -81 -67 -49 -15 -104 -3 -139 30 -28 27 -30 32
-30 107 0 89 13 116 64 139 40 17 79 17 121 0z m939 0 c35 -15 66 -50 66 -76
0 -12 -8 -15 -35 -12 -19 2 -40 10 -46 18 -18 21 -76 18 -89 -5 -16 -30 -12
-107 6 -125 21 -22 61 -20 81 4 24 28 83 28 83 0 0 -30 -41 -67 -90 -80 -54
-15 -115 4 -144 43 -29 40 -30 165 -1 198 42 46 109 60 169 35z m-2294 -84 c0
-94 14 -132 49 -132 35 0 46 28 46 126 l0 94 38 0 39 0 -4 -114 c-2 -95 -6
-117 -22 -135 -43 -47 -149 -47 -192 0 -16 18 -20 40 -22 135 l-4 114 36 0 36
0 0 -88z m1040 -17 l0 -105 40 0 c39 0 40 -1 40 -35 l0 -35 -125 0 -125 0 0
35 0 35 50 0 50 0 0 69 0 70 -42 3 c-40 3 -43 5 -46 36 l-3 32 80 0 81 0 0
-105z m491 -17 l14 -123 20 123 c18 122 19 123 44 120 27 -3 29 -10 56 -183 8
-49 8 -49 21 55 7 58 13 111 13 118 1 7 14 12 31 12 26 0 30 -3 26 -22 -3 -13
-10 -63 -16 -113 -17 -148 -16 -145 -59 -145 l-38 0 -12 69 c-6 39 -11 86 -11
105 0 20 -4 36 -10 36 -5 0 -10 -12 -10 -27 0 -16 -5 -63 -12 -106 l-12 -78
-40 3 -41 3 -12 90 c-27 209 -27 185 5 185 l30 0 13 -122z m449 17 l0 -105 40
0 c39 0 40 -1 40 -35 l0 -35 -131 0 -130 0 3 33 c3 31 4 32 56 35 l52 3 0 70
0 69 -45 0 c-45 0 -45 0 -45 35 l0 35 80 0 80 0 0 -105z m680 74 c0 -25 -15
-48 -72 -111 l-71 -79 74 3 74 3 3 -32 3 -33 -125 0 -126 0 0 31 c0 25 15 47
71 108 l72 76 -67 3 c-66 3 -66 3 -66 32 l0 30 115 0 115 0 0 -31z m888 -131
c19 -19 14 -30 -8 -18 -11 6 -20 15 -20 20 0 14 14 12 28 -2z"/>
<path d="M2115 7535 c11 -8 25 -13 32 -11 7 3 13 1 13 -4 0 -6 7 -10 16 -10
28 0 -11 30 -48 36 -31 5 -32 5 -13 -11z"/>
<path d="M2093 7363 c-17 -6 -16 -23 1 -23 8 0 16 7 20 15 6 15 1 17 -21 8z"/>
<path d="M2720 6971 c0 -17 61 -51 90 -51 24 1 24 1 5 15 -11 8 -25 19 -32 24
-19 16 -63 25 -63 12z"/>
<path d="M3455 7380 l-31 -140 58 0 c35 0 58 4 58 11 0 6 -11 58 -24 117 -14
59 -26 117 -28 130 -2 12 -17 -41 -33 -118z"/>
<path d="M5900 7340 c-17 -17 -20 -33 -20 -105 0 -102 15 -125 79 -125 31 0
44 6 61 28 19 23 21 37 18 103 -2 58 -8 82 -22 98 -26 28 -88 29 -116 1z"/>
<path d="M4411 7334 c-17 -21 -21 -41 -21 -99 0 -95 20 -125 86 -125 70 0 84
21 84 125 0 104 -14 125 -84 125 -36 0 -48 -5 -65 -26z"/>
<path d="M7404 6248 c-42 -20 -55 -78 -29 -127 16 -33 33 -41 81 -41 50 0 84
37 84 90 0 73 -68 112 -136 78z"/>
<path d="M6913 5305 c-38 -16 -43 -30 -43 -119 0 -59 4 -78 21 -100 28 -35 80
-36 114 -1 22 21 25 33 25 95 0 59 -8 97 -25 118 -11 13 -66 18 -92 7z"/>
<path d="M4933 5320 c-25 -10 -43 -39 -43 -69 0 -20 6 -21 85 -21 92 0 97 4
74 53 -18 40 -68 56 -116 37z"/>
<path d="M5900 5290 c-17 -17 -20 -33 -20 -103 0 -74 3 -86 23 -105 33 -31 90
-30 123 4 25 24 26 30 23 110 -3 71 -7 88 -23 100 -30 21 -102 18 -126 -6z"/>
<path d="M2015 3429 c-4 -6 -5 -12 -2 -15 2 -3 7 2 10 11 7 17 1 20 -8 4z"/>
<path d="M1969 3384 c-17 -21 -61 -42 -76 -37 -7 3 -13 -3 -13 -12 0 -9 -4
-14 -9 -11 -13 8 -63 -19 -91 -49 -23 -24 -23 -27 -8 -36 10 -5 15 -16 12 -24
-6 -16 11 -21 20 -7 3 5 33 17 67 28 34 10 64 25 67 33 3 7 25 31 49 53 49 46
57 78 19 78 -13 0 -29 -7 -37 -16z"/>
<path d="M2107 3200 c-39 -43 -86 -65 -109 -51 -11 7 -18 7 -18 1 0 -5 -16
-28 -35 -49 -20 -22 -34 -45 -33 -52 2 -7 -9 -19 -24 -26 -24 -12 -41 -53 -21
-53 17 0 111 51 128 70 11 12 31 28 46 35 15 8 40 42 62 84 20 39 35 71 33 71
-1 0 -15 -13 -29 -30z"/>
<path d="M1753 3174 c-6 -13 -7 -24 -3 -24 9 0 25 39 18 45 -2 2 -8 -7 -15
-21z"/>
<path d="M5931 2764 c0 -11 3 -14 6 -6 3 7 2 16 -1 19 -3 4 -6 -2 -5 -13z"/>
<path d="M5475 2431 c-7 -12 12 -24 25 -16 11 7 4 25 -10 25 -5 0 -11 -4 -15
-9z"/>
<path d="M5960 2181 c0 -26 -5 -41 -12 -41 -9 0 -10 -2 -2 -8 7 -4 14 -16 17
-27 3 -15 5 -12 6 10 1 17 4 45 5 63 2 18 0 35 -5 38 -5 3 -9 -13 -9 -35z"/>
<path d="M5962 2060 c0 -14 2 -19 5 -12 2 6 2 18 0 25 -3 6 -5 1 -5 -13z"/>
<path d="M5820 1681 c0 -6 5 -13 10 -16 6 -3 10 1 10 9 0 9 -4 16 -10 16 -5 0
-10 -4 -10 -9z"/>
<path d="M5348 1083 c-54 -26 -62 -43 -20 -43 31 0 67 22 82 51 14 25 -1 23
-62 -8z"/>
<path d="M5515 955 c-3 -8 -7 -22 -10 -30 -8 -25 11 -17 23 10 15 32 15 35 2
35 -6 0 -13 -7 -15 -15z"/>
<path d="M4716 941 c-4 -7 -5 -15 -2 -18 9 -9 19 4 14 18 -4 11 -6 11 -12 0z"/>
<path d="M5463 885 c-32 -14 -48 -30 -18 -19 8 4 15 1 15 -5 0 -18 14 -13 28
10 18 28 13 30 -25 14z"/>
<path d="M5367 834 c-15 -9 -27 -23 -27 -34 0 -27 11 -25 44 9 32 33 24 46
-17 25z"/>
<path d="M5401 728 c-18 -29 -32 -88 -21 -88 5 0 12 5 15 10 3 6 14 10 25 10
13 0 17 5 13 20 -3 11 0 27 7 35 13 16 6 35 -13 35 -7 0 -18 -10 -26 -22z"/>
<path d="M622 1208 c-7 -7 -12 -36 -12 -65 0 -46 3 -55 26 -70 24 -15 29 -15
53 -2 21 12 27 23 29 61 4 64 -10 88 -51 88 -18 0 -38 -5 -45 -12z"/>
<path d="M1258 1119 c-24 -14 -23 -46 2 -59 30 -16 75 8 75 40 0 21 -5 25 -30
27 -16 2 -38 -2 -47 -8z"/>
<path d="M281 634 c0 -11 3 -14 6 -6 3 7 2 16 -1 19 -3 4 -6 -2 -5 -13z"/>
<path d="M1866 558 c-24 -34 -20 -38 39 -38 48 0 55 2 55 20 0 40 -69 54 -94
18z"/>
<path d="M1495 7830 c3 -5 8 -10 11 -10 2 0 4 5 4 10 0 6 -5 10 -11 10 -5 0
-7 -4 -4 -10z"/>
<path d="M1340 7800 c0 -5 5 -10 10 -10 6 0 10 5 10 10 0 6 -4 10 -10 10 -5 0
-10 -4 -10 -10z"/>
<path d="M1390 7730 c0 -5 5 -10 10 -10 6 0 10 5 10 10 0 6 -4 10 -10 10 -5 0
-10 -4 -10 -10z"/>
<path d="M1143 7703 c-29 -5 -30 -23 -2 -23 16 0 19 -4 13 -22 -3 -13 -13 -30
-20 -39 -20 -22 -17 -29 9 -29 16 0 22 6 23 25 2 34 24 61 35 43 7 -10 9 -9 9
5 0 11 -8 17 -22 18 -17 1 -19 2 -5 6 9 2 17 9 17 14 0 9 -17 10 -57 2z"/>
<path d="M1380 7685 c-11 -13 -10 -14 4 -9 9 3 16 10 16 15 0 13 -6 11 -20 -6z"/>
<path d="M1155 7550 c-4 -6 3 -10 14 -10 25 0 27 6 6 13 -8 4 -17 2 -20 -3z"/>
<path d="M944 7489 c-3 -6 -1 -16 5 -22 8 -8 11 -5 11 11 0 24 -5 28 -16 11z"/>
<path d="M880 7450 c0 -5 5 -10 11 -10 5 0 7 5 4 10 -3 6 -8 10 -11 10 -2 0
-4 -4 -4 -10z"/>
<path d="M985 7320 c3 -5 13 -10 21 -10 8 0 12 5 9 10 -3 6 -13 10 -21 10 -8
0 -12 -4 -9 -10z"/>
<path d="M840 7255 c-8 -9 -8 -15 -2 -15 12 0 26 19 19 26 -2 2 -10 -2 -17
-11z"/>
<path d="M807 7213 c-4 -3 -7 -13 -7 -20 0 -12 3 -12 15 1 8 8 15 17 15 20 0
8 -15 7 -23 -1z"/>
<path d="M871 7194 c0 -11 3 -14 6 -6 3 7 2 16 -1 19 -3 4 -6 -2 -5 -13z"/>
<path d="M973 7113 c9 -2 23 -2 30 0 6 3 -1 5 -18 5 -16 0 -22 -2 -12 -5z"/>
<path d="M720 7040 c0 -5 7 -7 15 -4 8 4 15 8 15 10 0 2 -7 4 -15 4 -8 0 -15
-4 -15 -10z"/>
<path d="M620 6951 c0 -6 5 -13 10 -16 6 -3 10 1 10 9 0 9 -4 16 -10 16 -5 0
-10 -4 -10 -9z"/>
<path d="M650 6920 c0 -5 5 -10 10 -10 6 0 10 5 10 10 0 6 -4 10 -10 10 -5 0
-10 -4 -10 -10z"/>
<path d="M720 6890 c0 -5 5 -10 11 -10 5 0 7 5 4 10 -3 6 -8 10 -11 10 -2 0
-4 -4 -4 -10z"/>
<path d="M778 6873 c7 -3 16 -2 19 1 4 3 -2 6 -13 5 -11 0 -14 -3 -6 -6z"/>
<path d="M710 6770 c0 -29 2 -51 4 -49 8 8 10 88 3 95 -4 4 -7 -17 -7 -46z"/>
<path d="M460 6720 c-13 -8 -12 -10 3 -10 9 0 17 5 17 10 0 12 -1 12 -20 0z"/>
<path d="M400 6680 c0 -5 7 -10 15 -10 8 0 15 5 15 10 0 6 -7 10 -15 10 -8 0
-15 -4 -15 -10z"/>
<path d="M480 6545 c0 -19 21 -19 46 0 18 14 17 14 -13 15 -23 0 -33 -5 -33
-15z"/>
<path d="M603 6545 c-13 -14 -17 -35 -8 -35 7 0 45 38 45 45 0 10 -26 4 -37
-10z"/>
<path d="M800 6549 c0 -5 5 -7 10 -4 6 3 10 8 10 11 0 2 -4 4 -10 4 -5 0 -10
-5 -10 -11z"/>
<path d="M400 6520 c0 -22 25 -27 50 -10 13 9 13 11 0 20 -25 17 -50 12 -50
-10z"/>
<path d="M316 6425 c-11 -29 5 -45 45 -45 34 0 39 -3 39 -22 0 -16 3 -19 11
-11 16 16 -11 53 -38 53 -16 0 -23 6 -23 20 0 23 -25 27 -34 5z"/>
<path d="M80 6310 c0 -42 17 -70 42 -70 8 1 7 6 -6 15 -18 13 -15 35 5 35 14
0 39 -26 39 -39 0 -6 -4 -11 -10 -11 -5 0 -10 -18 -10 -40 0 -22 5 -40 10 -40
6 0 10 18 10 40 0 22 5 40 10 40 6 0 10 17 10 38 0 41 -14 55 -68 67 l-32 7 0
-42z m80 0 c0 -5 -2 -10 -4 -10 -3 0 -8 5 -11 10 -3 6 -1 10 4 10 6 0 11 -4
11 -10z"/>
<path d="M481 6324 c0 -11 3 -14 6 -6 3 7 2 16 -1 19 -3 4 -6 -2 -5 -13z"/>
<path d="M530 6280 c0 -5 7 -10 15 -10 8 0 15 5 15 10 0 6 -7 10 -15 10 -8 0
-15 -4 -15 -10z"/>
<path d="M11 6216 c-13 -23 -9 -46 9 -46 6 0 30 52 30 66 0 15 -29 -1 -39 -20z"/>
<path d="M240 6224 c0 -8 5 -12 10 -9 6 3 10 10 10 16 0 5 -4 9 -10 9 -5 0
-10 -7 -10 -16z"/>
<path d="M300 6231 c0 -6 5 -13 10 -16 6 -3 10 1 10 9 0 9 -4 16 -10 16 -5 0
-10 -4 -10 -9z"/>
<path d="M551 6214 c0 -11 3 -14 6 -6 3 7 2 16 -1 19 -3 4 -6 -2 -5 -13z"/>
<path d="M65 6170 c-3 -5 -1 -10 4 -10 6 0 11 5 11 10 0 6 -2 10 -4 10 -3 0
-8 -4 -11 -10z"/>
<path d="M0 6150 c0 -5 9 -10 19 -10 11 0 23 5 26 10 4 6 -5 10 -19 10 -14 0
-26 -4 -26 -10z"/>
<path d="M36 6091 c-3 -5 5 -11 19 -13 17 -4 25 -1 25 8 0 15 -36 19 -44 5z"/>
<path d="M110 5930 c0 -5 5 -10 10 -10 6 0 10 5 10 10 0 6 -4 10 -10 10 -5 0
-10 -4 -10 -10z"/>
</g>
</svg>
