<?xml version="1.0" standalone="no"?>
<!DOCTYPE svg PUBLIC "-//W3C//DTD SVG 1.1//EN" "http://www.w3.org/Graphics/SVG/1.1/DTD/svg11.dtd">
<svg width="246" height="246" version="1.1" xmlns="http://www.w3.org/2000/svg">
	<desc>http://nurkiewicz.github.io/talks/charbusters</desc>
	<g id="elements" fill="black" stroke="none">
		<rect x="0" y="0" width="6" height="6" />
		<rect x="6" y="0" width="6" height="6" />
		<rect x="12" y="0" width="6" height="6" />
		<rect x="18" y="0" width="6" height="6" />
		<rect x="24" y="0" width="6" height="6" />
		<rect x="30" y="0" width="6" height="6" />
		<rect x="36" y="0" width="6" height="6" />
		<rect x="48" y="0" width="6" height="6" />
		<rect x="54" y="0" width="6" height="6" />
		<rect x="60" y="0" width="6" height="6" />
		<rect x="90" y="0" width="6" height="6" />
		<rect x="96" y="0" width="6" height="6" />
		<rect x="102" y="0" width="6" height="6" />
		<rect x="108" y="0" width="6" height="6" />
		<rect x="120" y="0" width="6" height="6" />
		<rect x="126" y="0" width="6" height="6" />
		<rect x="132" y="0" width="6" height="6" />
		<rect x="138" y="0" width="6" height="6" />
		<rect x="150" y="0" width="6" height="6" />
		<rect x="156" y="0" width="6" height="6" />
		<rect x="168" y="0" width="6" height="6" />
		<rect x="180" y="0" width="6" height="6" />
		<rect x="186" y="0" width="6" height="6" />
		<rect x="192" y="0" width="6" height="6" />
		<rect x="204" y="0" width="6" height="6" />
		<rect x="210" y="0" width="6" height="6" />
		<rect x="216" y="0" width="6" height="6" />
		<rect x="222" y="0" width="6" height="6" />
		<rect x="228" y="0" width="6" height="6" />
		<rect x="234" y="0" width="6" height="6" />
		<rect x="240" y="0" width="6" height="6" />
		<rect x="0" y="6" width="6" height="6" />
		<rect x="36" y="6" width="6" height="6" />
		<rect x="48" y="6" width="6" height="6" />
		<rect x="66" y="6" width="6" height="6" />
		<rect x="90" y="6" width="6" height="6" />
		<rect x="150" y="6" width="6" height="6" />
		<rect x="156" y="6" width="6" height="6" />
		<rect x="162" y="6" width="6" height="6" />
		<rect x="168" y="6" width="6" height="6" />
		<rect x="180" y="6" width="6" height="6" />
		<rect x="204" y="6" width="6" height="6" />
		<rect x="240" y="6" width="6" height="6" />
		<rect x="0" y="12" width="6" height="6" />
		<rect x="12" y="12" width="6" height="6" />
		<rect x="18" y="12" width="6" height="6" />
		<rect x="24" y="12" width="6" height="6" />
		<rect x="36" y="12" width="6" height="6" />
		<rect x="48" y="12" width="6" height="6" />
		<rect x="54" y="12" width="6" height="6" />
		<rect x="66" y="12" width="6" height="6" />
		<rect x="72" y="12" width="6" height="6" />
		<rect x="78" y="12" width="6" height="6" />
		<rect x="102" y="12" width="6" height="6" />
		<rect x="108" y="12" width="6" height="6" />
		<rect x="114" y="12" width="6" height="6" />
		<rect x="120" y="12" width="6" height="6" />
		<rect x="126" y="12" width="6" height="6" />
		<rect x="132" y="12" width="6" height="6" />
		<rect x="150" y="12" width="6" height="6" />
		<rect x="162" y="12" width="6" height="6" />
		<rect x="168" y="12" width="6" height="6" />
		<rect x="186" y="12" width="6" height="6" />
		<rect x="204" y="12" width="6" height="6" />
		<rect x="216" y="12" width="6" height="6" />
		<rect x="222" y="12" width="6" height="6" />
		<rect x="228" y="12" width="6" height="6" />
		<rect x="240" y="12" width="6" height="6" />
		<rect x="0" y="18" width="6" height="6" />
		<rect x="12" y="18" width="6" height="6" />
		<rect x="18" y="18" width="6" height="6" />
		<rect x="24" y="18" width="6" height="6" />
		<rect x="36" y="18" width="6" height="6" />
		<rect x="54" y="18" width="6" height="6" />
		<rect x="60" y="18" width="6" height="6" />
		<rect x="66" y="18" width="6" height="6" />
		<rect x="72" y="18" width="6" height="6" />
		<rect x="90" y="18" width="6" height="6" />
		<rect x="132" y="18" width="6" height="6" />
		<rect x="144" y="18" width="6" height="6" />
		<rect x="156" y="18" width="6" height="6" />
		<rect x="162" y="18" width="6" height="6" />
		<rect x="168" y="18" width="6" height="6" />
		<rect x="180" y="18" width="6" height="6" />
		<rect x="204" y="18" width="6" height="6" />
		<rect x="216" y="18" width="6" height="6" />
		<rect x="222" y="18" width="6" height="6" />
		<rect x="228" y="18" width="6" height="6" />
		<rect x="240" y="18" width="6" height="6" />
		<rect x="0" y="24" width="6" height="6" />
		<rect x="12" y="24" width="6" height="6" />
		<rect x="18" y="24" width="6" height="6" />
		<rect x="24" y="24" width="6" height="6" />
		<rect x="36" y="24" width="6" height="6" />
		<rect x="54" y="24" width="6" height="6" />
		<rect x="60" y="24" width="6" height="6" />
		<rect x="72" y="24" width="6" height="6" />
		<rect x="84" y="24" width="6" height="6" />
		<rect x="102" y="24" width="6" height="6" />
		<rect x="114" y="24" width="6" height="6" />
		<rect x="120" y="24" width="6" height="6" />
		<rect x="150" y="24" width="6" height="6" />
		<rect x="168" y="24" width="6" height="6" />
		<rect x="186" y="24" width="6" height="6" />
		<rect x="192" y="24" width="6" height="6" />
		<rect x="204" y="24" width="6" height="6" />
		<rect x="216" y="24" width="6" height="6" />
		<rect x="222" y="24" width="6" height="6" />
		<rect x="228" y="24" width="6" height="6" />
		<rect x="240" y="24" width="6" height="6" />
		<rect x="0" y="30" width="6" height="6" />
		<rect x="36" y="30" width="6" height="6" />
		<rect x="48" y="30" width="6" height="6" />
		<rect x="66" y="30" width="6" height="6" />
		<rect x="72" y="30" width="6" height="6" />
		<rect x="78" y="30" width="6" height="6" />
		<rect x="84" y="30" width="6" height="6" />
		<rect x="90" y="30" width="6" height="6" />
		<rect x="138" y="30" width="6" height="6" />
		<rect x="144" y="30" width="6" height="6" />
		<rect x="156" y="30" width="6" height="6" />
		<rect x="162" y="30" width="6" height="6" />
		<rect x="168" y="30" width="6" height="6" />
		<rect x="192" y="30" width="6" height="6" />
		<rect x="204" y="30" width="6" height="6" />
		<rect x="240" y="30" width="6" height="6" />
		<rect x="0" y="36" width="6" height="6" />
		<rect x="6" y="36" width="6" height="6" />
		<rect x="12" y="36" width="6" height="6" />
		<rect x="18" y="36" width="6" height="6" />
		<rect x="24" y="36" width="6" height="6" />
		<rect x="30" y="36" width="6" height="6" />
		<rect x="36" y="36" width="6" height="6" />
		<rect x="48" y="36" width="6" height="6" />
		<rect x="60" y="36" width="6" height="6" />
		<rect x="72" y="36" width="6" height="6" />
		<rect x="84" y="36" width="6" height="6" />
		<rect x="96" y="36" width="6" height="6" />
		<rect x="108" y="36" width="6" height="6" />
		<rect x="120" y="36" width="6" height="6" />
		<rect x="132" y="36" width="6" height="6" />
		<rect x="144" y="36" width="6" height="6" />
		<rect x="156" y="36" width="6" height="6" />
		<rect x="168" y="36" width="6" height="6" />
		<rect x="180" y="36" width="6" height="6" />
		<rect x="192" y="36" width="6" height="6" />
		<rect x="204" y="36" width="6" height="6" />
		<rect x="210" y="36" width="6" height="6" />
		<rect x="216" y="36" width="6" height="6" />
		<rect x="222" y="36" width="6" height="6" />
		<rect x="228" y="36" width="6" height="6" />
		<rect x="234" y="36" width="6" height="6" />
		<rect x="240" y="36" width="6" height="6" />
		<rect x="48" y="42" width="6" height="6" />
		<rect x="72" y="42" width="6" height="6" />
		<rect x="78" y="42" width="6" height="6" />
		<rect x="84" y="42" width="6" height="6" />
		<rect x="90" y="42" width="6" height="6" />
		<rect x="102" y="42" width="6" height="6" />
		<rect x="108" y="42" width="6" height="6" />
		<rect x="114" y="42" width="6" height="6" />
		<rect x="138" y="42" width="6" height="6" />
		<rect x="150" y="42" width="6" height="6" />
		<rect x="156" y="42" width="6" height="6" />
		<rect x="168" y="42" width="6" height="6" />
		<rect x="192" y="42" width="6" height="6" />
		<rect x="12" y="48" width="6" height="6" />
		<rect x="18" y="48" width="6" height="6" />
		<rect x="24" y="48" width="6" height="6" />
		<rect x="36" y="48" width="6" height="6" />
		<rect x="48" y="48" width="6" height="6" />
		<rect x="78" y="48" width="6" height="6" />
		<rect x="84" y="48" width="6" height="6" />
		<rect x="96" y="48" width="6" height="6" />
		<rect x="102" y="48" width="6" height="6" />
		<rect x="120" y="48" width="6" height="6" />
		<rect x="126" y="48" width="6" height="6" />
		<rect x="168" y="48" width="6" height="6" />
		<rect x="174" y="48" width="6" height="6" />
		<rect x="192" y="48" width="6" height="6" />
		<rect x="198" y="48" width="6" height="6" />
		<rect x="204" y="48" width="6" height="6" />
		<rect x="210" y="48" width="6" height="6" />
		<rect x="228" y="48" width="6" height="6" />
		<rect x="234" y="48" width="6" height="6" />
		<rect x="240" y="48" width="6" height="6" />
		<rect x="0" y="54" width="6" height="6" />
		<rect x="6" y="54" width="6" height="6" />
		<rect x="12" y="54" width="6" height="6" />
		<rect x="18" y="54" width="6" height="6" />
		<rect x="30" y="54" width="6" height="6" />
		<rect x="54" y="54" width="6" height="6" />
		<rect x="78" y="54" width="6" height="6" />
		<rect x="90" y="54" width="6" height="6" />
		<rect x="96" y="54" width="6" height="6" />
		<rect x="108" y="54" width="6" height="6" />
		<rect x="120" y="54" width="6" height="6" />
		<rect x="132" y="54" width="6" height="6" />
		<rect x="138" y="54" width="6" height="6" />
		<rect x="156" y="54" width="6" height="6" />
		<rect x="168" y="54" width="6" height="6" />
		<rect x="186" y="54" width="6" height="6" />
		<rect x="192" y="54" width="6" height="6" />
		<rect x="198" y="54" width="6" height="6" />
		<rect x="204" y="54" width="6" height="6" />
		<rect x="210" y="54" width="6" height="6" />
		<rect x="216" y="54" width="6" height="6" />
		<rect x="228" y="54" width="6" height="6" />
		<rect x="234" y="54" width="6" height="6" />
		<rect x="12" y="60" width="6" height="6" />
		<rect x="30" y="60" width="6" height="6" />
		<rect x="36" y="60" width="6" height="6" />
		<rect x="42" y="60" width="6" height="6" />
		<rect x="48" y="60" width="6" height="6" />
		<rect x="54" y="60" width="6" height="6" />
		<rect x="60" y="60" width="6" height="6" />
		<rect x="78" y="60" width="6" height="6" />
		<rect x="108" y="60" width="6" height="6" />
		<rect x="120" y="60" width="6" height="6" />
		<rect x="126" y="60" width="6" height="6" />
		<rect x="132" y="60" width="6" height="6" />
		<rect x="144" y="60" width="6" height="6" />
		<rect x="156" y="60" width="6" height="6" />
		<rect x="162" y="60" width="6" height="6" />
		<rect x="168" y="60" width="6" height="6" />
		<rect x="174" y="60" width="6" height="6" />
		<rect x="180" y="60" width="6" height="6" />
		<rect x="198" y="60" width="6" height="6" />
		<rect x="210" y="60" width="6" height="6" />
		<rect x="234" y="60" width="6" height="6" />
		<rect x="0" y="66" width="6" height="6" />
		<rect x="6" y="66" width="6" height="6" />
		<rect x="12" y="66" width="6" height="6" />
		<rect x="18" y="66" width="6" height="6" />
		<rect x="24" y="66" width="6" height="6" />
		<rect x="30" y="66" width="6" height="6" />
		<rect x="42" y="66" width="6" height="6" />
		<rect x="48" y="66" width="6" height="6" />
		<rect x="66" y="66" width="6" height="6" />
		<rect x="78" y="66" width="6" height="6" />
		<rect x="84" y="66" width="6" height="6" />
		<rect x="108" y="66" width="6" height="6" />
		<rect x="114" y="66" width="6" height="6" />
		<rect x="126" y="66" width="6" height="6" />
		<rect x="132" y="66" width="6" height="6" />
		<rect x="150" y="66" width="6" height="6" />
		<rect x="162" y="66" width="6" height="6" />
		<rect x="168" y="66" width="6" height="6" />
		<rect x="180" y="66" width="6" height="6" />
		<rect x="186" y="66" width="6" height="6" />
		<rect x="192" y="66" width="6" height="6" />
		<rect x="210" y="66" width="6" height="6" />
		<rect x="222" y="66" width="6" height="6" />
		<rect x="240" y="66" width="6" height="6" />
		<rect x="0" y="72" width="6" height="6" />
		<rect x="12" y="72" width="6" height="6" />
		<rect x="18" y="72" width="6" height="6" />
		<rect x="24" y="72" width="6" height="6" />
		<rect x="36" y="72" width="6" height="6" />
		<rect x="60" y="72" width="6" height="6" />
		<rect x="108" y="72" width="6" height="6" />
		<rect x="120" y="72" width="6" height="6" />
		<rect x="126" y="72" width="6" height="6" />
		<rect x="138" y="72" width="6" height="6" />
		<rect x="144" y="72" width="6" height="6" />
		<rect x="156" y="72" width="6" height="6" />
		<rect x="162" y="72" width="6" height="6" />
		<rect x="168" y="72" width="6" height="6" />
		<rect x="174" y="72" width="6" height="6" />
		<rect x="180" y="72" width="6" height="6" />
		<rect x="186" y="72" width="6" height="6" />
		<rect x="198" y="72" width="6" height="6" />
		<rect x="222" y="72" width="6" height="6" />
		<rect x="228" y="72" width="6" height="6" />
		<rect x="234" y="72" width="6" height="6" />
		<rect x="24" y="78" width="6" height="6" />
		<rect x="54" y="78" width="6" height="6" />
		<rect x="66" y="78" width="6" height="6" />
		<rect x="72" y="78" width="6" height="6" />
		<rect x="78" y="78" width="6" height="6" />
		<rect x="84" y="78" width="6" height="6" />
		<rect x="90" y="78" width="6" height="6" />
		<rect x="96" y="78" width="6" height="6" />
		<rect x="102" y="78" width="6" height="6" />
		<rect x="108" y="78" width="6" height="6" />
		<rect x="114" y="78" width="6" height="6" />
		<rect x="120" y="78" width="6" height="6" />
		<rect x="132" y="78" width="6" height="6" />
		<rect x="138" y="78" width="6" height="6" />
		<rect x="150" y="78" width="6" height="6" />
		<rect x="162" y="78" width="6" height="6" />
		<rect x="180" y="78" width="6" height="6" />
		<rect x="192" y="78" width="6" height="6" />
		<rect x="210" y="78" width="6" height="6" />
		<rect x="216" y="78" width="6" height="6" />
		<rect x="234" y="78" width="6" height="6" />
		<rect x="240" y="78" width="6" height="6" />
		<rect x="24" y="84" width="6" height="6" />
		<rect x="30" y="84" width="6" height="6" />
		<rect x="36" y="84" width="6" height="6" />
		<rect x="42" y="84" width="6" height="6" />
		<rect x="66" y="84" width="6" height="6" />
		<rect x="84" y="84" width="6" height="6" />
		<rect x="96" y="84" width="6" height="6" />
		<rect x="108" y="84" width="6" height="6" />
		<rect x="114" y="84" width="6" height="6" />
		<rect x="120" y="84" width="6" height="6" />
		<rect x="138" y="84" width="6" height="6" />
		<rect x="144" y="84" width="6" height="6" />
		<rect x="162" y="84" width="6" height="6" />
		<rect x="168" y="84" width="6" height="6" />
		<rect x="174" y="84" width="6" height="6" />
		<rect x="180" y="84" width="6" height="6" />
		<rect x="186" y="84" width="6" height="6" />
		<rect x="198" y="84" width="6" height="6" />
		<rect x="204" y="84" width="6" height="6" />
		<rect x="210" y="84" width="6" height="6" />
		<rect x="222" y="84" width="6" height="6" />
		<rect x="228" y="84" width="6" height="6" />
		<rect x="12" y="90" width="6" height="6" />
		<rect x="30" y="90" width="6" height="6" />
		<rect x="48" y="90" width="6" height="6" />
		<rect x="60" y="90" width="6" height="6" />
		<rect x="66" y="90" width="6" height="6" />
		<rect x="84" y="90" width="6" height="6" />
		<rect x="90" y="90" width="6" height="6" />
		<rect x="96" y="90" width="6" height="6" />
		<rect x="102" y="90" width="6" height="6" />
		<rect x="108" y="90" width="6" height="6" />
		<rect x="114" y="90" width="6" height="6" />
		<rect x="120" y="90" width="6" height="6" />
		<rect x="126" y="90" width="6" height="6" />
		<rect x="132" y="90" width="6" height="6" />
		<rect x="138" y="90" width="6" height="6" />
		<rect x="156" y="90" width="6" height="6" />
		<rect x="162" y="90" width="6" height="6" />
		<rect x="180" y="90" width="6" height="6" />
		<rect x="186" y="90" width="6" height="6" />
		<rect x="192" y="90" width="6" height="6" />
		<rect x="198" y="90" width="6" height="6" />
		<rect x="204" y="90" width="6" height="6" />
		<rect x="210" y="90" width="6" height="6" />
		<rect x="216" y="90" width="6" height="6" />
		<rect x="222" y="90" width="6" height="6" />
		<rect x="6" y="96" width="6" height="6" />
		<rect x="18" y="96" width="6" height="6" />
		<rect x="30" y="96" width="6" height="6" />
		<rect x="36" y="96" width="6" height="6" />
		<rect x="42" y="96" width="6" height="6" />
		<rect x="72" y="96" width="6" height="6" />
		<rect x="78" y="96" width="6" height="6" />
		<rect x="90" y="96" width="6" height="6" />
		<rect x="108" y="96" width="6" height="6" />
		<rect x="132" y="96" width="6" height="6" />
		<rect x="138" y="96" width="6" height="6" />
		<rect x="150" y="96" width="6" height="6" />
		<rect x="156" y="96" width="6" height="6" />
		<rect x="162" y="96" width="6" height="6" />
		<rect x="174" y="96" width="6" height="6" />
		<rect x="186" y="96" width="6" height="6" />
		<rect x="192" y="96" width="6" height="6" />
		<rect x="198" y="96" width="6" height="6" />
		<rect x="210" y="96" width="6" height="6" />
		<rect x="222" y="96" width="6" height="6" />
		<rect x="228" y="96" width="6" height="6" />
		<rect x="234" y="96" width="6" height="6" />
		<rect x="6" y="102" width="6" height="6" />
		<rect x="18" y="102" width="6" height="6" />
		<rect x="30" y="102" width="6" height="6" />
		<rect x="42" y="102" width="6" height="6" />
		<rect x="48" y="102" width="6" height="6" />
		<rect x="54" y="102" width="6" height="6" />
		<rect x="60" y="102" width="6" height="6" />
		<rect x="66" y="102" width="6" height="6" />
		<rect x="78" y="102" width="6" height="6" />
		<rect x="90" y="102" width="6" height="6" />
		<rect x="102" y="102" width="6" height="6" />
		<rect x="108" y="102" width="6" height="6" />
		<rect x="150" y="102" width="6" height="6" />
		<rect x="168" y="102" width="6" height="6" />
		<rect x="174" y="102" width="6" height="6" />
		<rect x="186" y="102" width="6" height="6" />
		<rect x="192" y="102" width="6" height="6" />
		<rect x="198" y="102" width="6" height="6" />
		<rect x="204" y="102" width="6" height="6" />
		<rect x="216" y="102" width="6" height="6" />
		<rect x="222" y="102" width="6" height="6" />
		<rect x="228" y="102" width="6" height="6" />
		<rect x="234" y="102" width="6" height="6" />
		<rect x="240" y="102" width="6" height="6" />
		<rect x="0" y="108" width="6" height="6" />
		<rect x="6" y="108" width="6" height="6" />
		<rect x="18" y="108" width="6" height="6" />
		<rect x="24" y="108" width="6" height="6" />
		<rect x="36" y="108" width="6" height="6" />
		<rect x="84" y="108" width="6" height="6" />
		<rect x="90" y="108" width="6" height="6" />
		<rect x="102" y="108" width="6" height="6" />
		<rect x="108" y="108" width="6" height="6" />
		<rect x="114" y="108" width="6" height="6" />
		<rect x="120" y="108" width="6" height="6" />
		<rect x="162" y="108" width="6" height="6" />
		<rect x="174" y="108" width="6" height="6" />
		<rect x="192" y="108" width="6" height="6" />
		<rect x="198" y="108" width="6" height="6" />
		<rect x="204" y="108" width="6" height="6" />
		<rect x="216" y="108" width="6" height="6" />
		<rect x="0" y="114" width="6" height="6" />
		<rect x="6" y="114" width="6" height="6" />
		<rect x="42" y="114" width="6" height="6" />
		<rect x="54" y="114" width="6" height="6" />
		<rect x="90" y="114" width="6" height="6" />
		<rect x="96" y="114" width="6" height="6" />
		<rect x="102" y="114" width="6" height="6" />
		<rect x="120" y="114" width="6" height="6" />
		<rect x="138" y="114" width="6" height="6" />
		<rect x="144" y="114" width="6" height="6" />
		<rect x="150" y="114" width="6" height="6" />
		<rect x="156" y="114" width="6" height="6" />
		<rect x="162" y="114" width="6" height="6" />
		<rect x="168" y="114" width="6" height="6" />
		<rect x="174" y="114" width="6" height="6" />
		<rect x="180" y="114" width="6" height="6" />
		<rect x="216" y="114" width="6" height="6" />
		<rect x="222" y="114" width="6" height="6" />
		<rect x="0" y="120" width="6" height="6" />
		<rect x="6" y="120" width="6" height="6" />
		<rect x="12" y="120" width="6" height="6" />
		<rect x="36" y="120" width="6" height="6" />
		<rect x="42" y="120" width="6" height="6" />
		<rect x="60" y="120" width="6" height="6" />
		<rect x="72" y="120" width="6" height="6" />
		<rect x="84" y="120" width="6" height="6" />
		<rect x="102" y="120" width="6" height="6" />
		<rect x="108" y="120" width="6" height="6" />
		<rect x="126" y="120" width="6" height="6" />
		<rect x="132" y="120" width="6" height="6" />
		<rect x="138" y="120" width="6" height="6" />
		<rect x="144" y="120" width="6" height="6" />
		<rect x="150" y="120" width="6" height="6" />
		<rect x="162" y="120" width="6" height="6" />
		<rect x="192" y="120" width="6" height="6" />
		<rect x="216" y="120" width="6" height="6" />
		<rect x="228" y="120" width="6" height="6" />
		<rect x="234" y="120" width="6" height="6" />
		<rect x="240" y="120" width="6" height="6" />
		<rect x="0" y="126" width="6" height="6" />
		<rect x="6" y="126" width="6" height="6" />
		<rect x="12" y="126" width="6" height="6" />
		<rect x="24" y="126" width="6" height="6" />
		<rect x="30" y="126" width="6" height="6" />
		<rect x="54" y="126" width="6" height="6" />
		<rect x="60" y="126" width="6" height="6" />
		<rect x="66" y="126" width="6" height="6" />
		<rect x="84" y="126" width="6" height="6" />
		<rect x="96" y="126" width="6" height="6" />
		<rect x="102" y="126" width="6" height="6" />
		<rect x="108" y="126" width="6" height="6" />
		<rect x="114" y="126" width="6" height="6" />
		<rect x="150" y="126" width="6" height="6" />
		<rect x="156" y="126" width="6" height="6" />
		<rect x="180" y="126" width="6" height="6" />
		<rect x="186" y="126" width="6" height="6" />
		<rect x="192" y="126" width="6" height="6" />
		<rect x="204" y="126" width="6" height="6" />
		<rect x="210" y="126" width="6" height="6" />
		<rect x="222" y="126" width="6" height="6" />
		<rect x="228" y="126" width="6" height="6" />
		<rect x="234" y="126" width="6" height="6" />
		<rect x="240" y="126" width="6" height="6" />
		<rect x="18" y="132" width="6" height="6" />
		<rect x="24" y="132" width="6" height="6" />
		<rect x="30" y="132" width="6" height="6" />
		<rect x="36" y="132" width="6" height="6" />
		<rect x="42" y="132" width="6" height="6" />
		<rect x="48" y="132" width="6" height="6" />
		<rect x="66" y="132" width="6" height="6" />
		<rect x="72" y="132" width="6" height="6" />
		<rect x="84" y="132" width="6" height="6" />
		<rect x="90" y="132" width="6" height="6" />
		<rect x="102" y="132" width="6" height="6" />
		<rect x="108" y="132" width="6" height="6" />
		<rect x="114" y="132" width="6" height="6" />
		<rect x="126" y="132" width="6" height="6" />
		<rect x="132" y="132" width="6" height="6" />
		<rect x="138" y="132" width="6" height="6" />
		<rect x="162" y="132" width="6" height="6" />
		<rect x="168" y="132" width="6" height="6" />
		<rect x="174" y="132" width="6" height="6" />
		<rect x="180" y="132" width="6" height="6" />
		<rect x="198" y="132" width="6" height="6" />
		<rect x="228" y="132" width="6" height="6" />
		<rect x="12" y="138" width="6" height="6" />
		<rect x="24" y="138" width="6" height="6" />
		<rect x="30" y="138" width="6" height="6" />
		<rect x="42" y="138" width="6" height="6" />
		<rect x="48" y="138" width="6" height="6" />
		<rect x="60" y="138" width="6" height="6" />
		<rect x="66" y="138" width="6" height="6" />
		<rect x="90" y="138" width="6" height="6" />
		<rect x="96" y="138" width="6" height="6" />
		<rect x="108" y="138" width="6" height="6" />
		<rect x="114" y="138" width="6" height="6" />
		<rect x="120" y="138" width="6" height="6" />
		<rect x="150" y="138" width="6" height="6" />
		<rect x="156" y="138" width="6" height="6" />
		<rect x="168" y="138" width="6" height="6" />
		<rect x="180" y="138" width="6" height="6" />
		<rect x="204" y="138" width="6" height="6" />
		<rect x="210" y="138" width="6" height="6" />
		<rect x="222" y="138" width="6" height="6" />
		<rect x="228" y="138" width="6" height="6" />
		<rect x="0" y="144" width="6" height="6" />
		<rect x="6" y="144" width="6" height="6" />
		<rect x="12" y="144" width="6" height="6" />
		<rect x="24" y="144" width="6" height="6" />
		<rect x="36" y="144" width="6" height="6" />
		<rect x="42" y="144" width="6" height="6" />
		<rect x="60" y="144" width="6" height="6" />
		<rect x="66" y="144" width="6" height="6" />
		<rect x="102" y="144" width="6" height="6" />
		<rect x="114" y="144" width="6" height="6" />
		<rect x="126" y="144" width="6" height="6" />
		<rect x="132" y="144" width="6" height="6" />
		<rect x="138" y="144" width="6" height="6" />
		<rect x="150" y="144" width="6" height="6" />
		<rect x="174" y="144" width="6" height="6" />
		<rect x="186" y="144" width="6" height="6" />
		<rect x="240" y="144" width="6" height="6" />
		<rect x="6" y="150" width="6" height="6" />
		<rect x="18" y="150" width="6" height="6" />
		<rect x="42" y="150" width="6" height="6" />
		<rect x="54" y="150" width="6" height="6" />
		<rect x="60" y="150" width="6" height="6" />
		<rect x="66" y="150" width="6" height="6" />
		<rect x="72" y="150" width="6" height="6" />
		<rect x="78" y="150" width="6" height="6" />
		<rect x="90" y="150" width="6" height="6" />
		<rect x="96" y="150" width="6" height="6" />
		<rect x="102" y="150" width="6" height="6" />
		<rect x="114" y="150" width="6" height="6" />
		<rect x="138" y="150" width="6" height="6" />
		<rect x="144" y="150" width="6" height="6" />
		<rect x="150" y="150" width="6" height="6" />
		<rect x="156" y="150" width="6" height="6" />
		<rect x="168" y="150" width="6" height="6" />
		<rect x="174" y="150" width="6" height="6" />
		<rect x="180" y="150" width="6" height="6" />
		<rect x="186" y="150" width="6" height="6" />
		<rect x="192" y="150" width="6" height="6" />
		<rect x="198" y="150" width="6" height="6" />
		<rect x="204" y="150" width="6" height="6" />
		<rect x="216" y="150" width="6" height="6" />
		<rect x="222" y="150" width="6" height="6" />
		<rect x="240" y="150" width="6" height="6" />
		<rect x="6" y="156" width="6" height="6" />
		<rect x="24" y="156" width="6" height="6" />
		<rect x="36" y="156" width="6" height="6" />
		<rect x="42" y="156" width="6" height="6" />
		<rect x="48" y="156" width="6" height="6" />
		<rect x="60" y="156" width="6" height="6" />
		<rect x="66" y="156" width="6" height="6" />
		<rect x="78" y="156" width="6" height="6" />
		<rect x="90" y="156" width="6" height="6" />
		<rect x="114" y="156" width="6" height="6" />
		<rect x="126" y="156" width="6" height="6" />
		<rect x="138" y="156" width="6" height="6" />
		<rect x="156" y="156" width="6" height="6" />
		<rect x="162" y="156" width="6" height="6" />
		<rect x="168" y="156" width="6" height="6" />
		<rect x="174" y="156" width="6" height="6" />
		<rect x="192" y="156" width="6" height="6" />
		<rect x="204" y="156" width="6" height="6" />
		<rect x="210" y="156" width="6" height="6" />
		<rect x="0" y="162" width="6" height="6" />
		<rect x="12" y="162" width="6" height="6" />
		<rect x="30" y="162" width="6" height="6" />
		<rect x="42" y="162" width="6" height="6" />
		<rect x="54" y="162" width="6" height="6" />
		<rect x="78" y="162" width="6" height="6" />
		<rect x="84" y="162" width="6" height="6" />
		<rect x="90" y="162" width="6" height="6" />
		<rect x="96" y="162" width="6" height="6" />
		<rect x="102" y="162" width="6" height="6" />
		<rect x="138" y="162" width="6" height="6" />
		<rect x="150" y="162" width="6" height="6" />
		<rect x="156" y="162" width="6" height="6" />
		<rect x="162" y="162" width="6" height="6" />
		<rect x="180" y="162" width="6" height="6" />
		<rect x="186" y="162" width="6" height="6" />
		<rect x="192" y="162" width="6" height="6" />
		<rect x="198" y="162" width="6" height="6" />
		<rect x="204" y="162" width="6" height="6" />
		<rect x="216" y="162" width="6" height="6" />
		<rect x="222" y="162" width="6" height="6" />
		<rect x="234" y="162" width="6" height="6" />
		<rect x="240" y="162" width="6" height="6" />
		<rect x="6" y="168" width="6" height="6" />
		<rect x="18" y="168" width="6" height="6" />
		<rect x="30" y="168" width="6" height="6" />
		<rect x="36" y="168" width="6" height="6" />
		<rect x="42" y="168" width="6" height="6" />
		<rect x="54" y="168" width="6" height="6" />
		<rect x="60" y="168" width="6" height="6" />
		<rect x="78" y="168" width="6" height="6" />
		<rect x="90" y="168" width="6" height="6" />
		<rect x="114" y="168" width="6" height="6" />
		<rect x="126" y="168" width="6" height="6" />
		<rect x="132" y="168" width="6" height="6" />
		<rect x="138" y="168" width="6" height="6" />
		<rect x="156" y="168" width="6" height="6" />
		<rect x="174" y="168" width="6" height="6" />
		<rect x="186" y="168" width="6" height="6" />
		<rect x="192" y="168" width="6" height="6" />
		<rect x="204" y="168" width="6" height="6" />
		<rect x="222" y="168" width="6" height="6" />
		<rect x="228" y="168" width="6" height="6" />
		<rect x="234" y="168" width="6" height="6" />
		<rect x="0" y="174" width="6" height="6" />
		<rect x="6" y="174" width="6" height="6" />
		<rect x="18" y="174" width="6" height="6" />
		<rect x="42" y="174" width="6" height="6" />
		<rect x="54" y="174" width="6" height="6" />
		<rect x="60" y="174" width="6" height="6" />
		<rect x="66" y="174" width="6" height="6" />
		<rect x="72" y="174" width="6" height="6" />
		<rect x="84" y="174" width="6" height="6" />
		<rect x="90" y="174" width="6" height="6" />
		<rect x="96" y="174" width="6" height="6" />
		<rect x="108" y="174" width="6" height="6" />
		<rect x="120" y="174" width="6" height="6" />
		<rect x="132" y="174" width="6" height="6" />
		<rect x="144" y="174" width="6" height="6" />
		<rect x="150" y="174" width="6" height="6" />
		<rect x="156" y="174" width="6" height="6" />
		<rect x="162" y="174" width="6" height="6" />
		<rect x="168" y="174" width="6" height="6" />
		<rect x="180" y="174" width="6" height="6" />
		<rect x="198" y="174" width="6" height="6" />
		<rect x="210" y="174" width="6" height="6" />
		<rect x="216" y="174" width="6" height="6" />
		<rect x="228" y="174" width="6" height="6" />
		<rect x="234" y="174" width="6" height="6" />
		<rect x="240" y="174" width="6" height="6" />
		<rect x="0" y="180" width="6" height="6" />
		<rect x="12" y="180" width="6" height="6" />
		<rect x="18" y="180" width="6" height="6" />
		<rect x="24" y="180" width="6" height="6" />
		<rect x="30" y="180" width="6" height="6" />
		<rect x="36" y="180" width="6" height="6" />
		<rect x="48" y="180" width="6" height="6" />
		<rect x="54" y="180" width="6" height="6" />
		<rect x="60" y="180" width="6" height="6" />
		<rect x="66" y="180" width="6" height="6" />
		<rect x="72" y="180" width="6" height="6" />
		<rect x="96" y="180" width="6" height="6" />
		<rect x="108" y="180" width="6" height="6" />
		<rect x="114" y="180" width="6" height="6" />
		<rect x="126" y="180" width="6" height="6" />
		<rect x="132" y="180" width="6" height="6" />
		<rect x="138" y="180" width="6" height="6" />
		<rect x="144" y="180" width="6" height="6" />
		<rect x="150" y="180" width="6" height="6" />
		<rect x="192" y="180" width="6" height="6" />
		<rect x="204" y="180" width="6" height="6" />
		<rect x="228" y="180" width="6" height="6" />
		<rect x="0" y="186" width="6" height="6" />
		<rect x="18" y="186" width="6" height="6" />
		<rect x="24" y="186" width="6" height="6" />
		<rect x="30" y="186" width="6" height="6" />
		<rect x="42" y="186" width="6" height="6" />
		<rect x="60" y="186" width="6" height="6" />
		<rect x="66" y="186" width="6" height="6" />
		<rect x="90" y="186" width="6" height="6" />
		<rect x="108" y="186" width="6" height="6" />
		<rect x="120" y="186" width="6" height="6" />
		<rect x="132" y="186" width="6" height="6" />
		<rect x="138" y="186" width="6" height="6" />
		<rect x="150" y="186" width="6" height="6" />
		<rect x="168" y="186" width="6" height="6" />
		<rect x="204" y="186" width="6" height="6" />
		<rect x="210" y="186" width="6" height="6" />
		<rect x="234" y="186" width="6" height="6" />
		<rect x="0" y="192" width="6" height="6" />
		<rect x="12" y="192" width="6" height="6" />
		<rect x="24" y="192" width="6" height="6" />
		<rect x="30" y="192" width="6" height="6" />
		<rect x="36" y="192" width="6" height="6" />
		<rect x="66" y="192" width="6" height="6" />
		<rect x="84" y="192" width="6" height="6" />
		<rect x="90" y="192" width="6" height="6" />
		<rect x="102" y="192" width="6" height="6" />
		<rect x="108" y="192" width="6" height="6" />
		<rect x="120" y="192" width="6" height="6" />
		<rect x="126" y="192" width="6" height="6" />
		<rect x="156" y="192" width="6" height="6" />
		<rect x="168" y="192" width="6" height="6" />
		<rect x="174" y="192" width="6" height="6" />
		<rect x="192" y="192" width="6" height="6" />
		<rect x="198" y="192" width="6" height="6" />
		<rect x="204" y="192" width="6" height="6" />
		<rect x="210" y="192" width="6" height="6" />
		<rect x="216" y="192" width="6" height="6" />
		<rect x="228" y="192" width="6" height="6" />
		<rect x="48" y="198" width="6" height="6" />
		<rect x="54" y="198" width="6" height="6" />
		<rect x="60" y="198" width="6" height="6" />
		<rect x="72" y="198" width="6" height="6" />
		<rect x="78" y="198" width="6" height="6" />
		<rect x="84" y="198" width="6" height="6" />
		<rect x="90" y="198" width="6" height="6" />
		<rect x="96" y="198" width="6" height="6" />
		<rect x="108" y="198" width="6" height="6" />
		<rect x="114" y="198" width="6" height="6" />
		<rect x="126" y="198" width="6" height="6" />
		<rect x="138" y="198" width="6" height="6" />
		<rect x="144" y="198" width="6" height="6" />
		<rect x="156" y="198" width="6" height="6" />
		<rect x="168" y="198" width="6" height="6" />
		<rect x="192" y="198" width="6" height="6" />
		<rect x="216" y="198" width="6" height="6" />
		<rect x="228" y="198" width="6" height="6" />
		<rect x="234" y="198" width="6" height="6" />
		<rect x="240" y="198" width="6" height="6" />
		<rect x="0" y="204" width="6" height="6" />
		<rect x="6" y="204" width="6" height="6" />
		<rect x="12" y="204" width="6" height="6" />
		<rect x="18" y="204" width="6" height="6" />
		<rect x="24" y="204" width="6" height="6" />
		<rect x="30" y="204" width="6" height="6" />
		<rect x="36" y="204" width="6" height="6" />
		<rect x="66" y="204" width="6" height="6" />
		<rect x="72" y="204" width="6" height="6" />
		<rect x="84" y="204" width="6" height="6" />
		<rect x="96" y="204" width="6" height="6" />
		<rect x="108" y="204" width="6" height="6" />
		<rect x="120" y="204" width="6" height="6" />
		<rect x="126" y="204" width="6" height="6" />
		<rect x="150" y="204" width="6" height="6" />
		<rect x="156" y="204" width="6" height="6" />
		<rect x="162" y="204" width="6" height="6" />
		<rect x="168" y="204" width="6" height="6" />
		<rect x="180" y="204" width="6" height="6" />
		<rect x="186" y="204" width="6" height="6" />
		<rect x="192" y="204" width="6" height="6" />
		<rect x="204" y="204" width="6" height="6" />
		<rect x="216" y="204" width="6" height="6" />
		<rect x="222" y="204" width="6" height="6" />
		<rect x="228" y="204" width="6" height="6" />
		<rect x="0" y="210" width="6" height="6" />
		<rect x="36" y="210" width="6" height="6" />
		<rect x="60" y="210" width="6" height="6" />
		<rect x="72" y="210" width="6" height="6" />
		<rect x="102" y="210" width="6" height="6" />
		<rect x="114" y="210" width="6" height="6" />
		<rect x="120" y="210" width="6" height="6" />
		<rect x="144" y="210" width="6" height="6" />
		<rect x="150" y="210" width="6" height="6" />
		<rect x="186" y="210" width="6" height="6" />
		<rect x="192" y="210" width="6" height="6" />
		<rect x="216" y="210" width="6" height="6" />
		<rect x="222" y="210" width="6" height="6" />
		<rect x="240" y="210" width="6" height="6" />
		<rect x="0" y="216" width="6" height="6" />
		<rect x="12" y="216" width="6" height="6" />
		<rect x="18" y="216" width="6" height="6" />
		<rect x="24" y="216" width="6" height="6" />
		<rect x="36" y="216" width="6" height="6" />
		<rect x="48" y="216" width="6" height="6" />
		<rect x="66" y="216" width="6" height="6" />
		<rect x="72" y="216" width="6" height="6" />
		<rect x="78" y="216" width="6" height="6" />
		<rect x="84" y="216" width="6" height="6" />
		<rect x="90" y="216" width="6" height="6" />
		<rect x="96" y="216" width="6" height="6" />
		<rect x="114" y="216" width="6" height="6" />
		<rect x="126" y="216" width="6" height="6" />
		<rect x="132" y="216" width="6" height="6" />
		<rect x="156" y="216" width="6" height="6" />
		<rect x="162" y="216" width="6" height="6" />
		<rect x="180" y="216" width="6" height="6" />
		<rect x="192" y="216" width="6" height="6" />
		<rect x="198" y="216" width="6" height="6" />
		<rect x="204" y="216" width="6" height="6" />
		<rect x="210" y="216" width="6" height="6" />
		<rect x="216" y="216" width="6" height="6" />
		<rect x="222" y="216" width="6" height="6" />
		<rect x="228" y="216" width="6" height="6" />
		<rect x="0" y="222" width="6" height="6" />
		<rect x="12" y="222" width="6" height="6" />
		<rect x="18" y="222" width="6" height="6" />
		<rect x="24" y="222" width="6" height="6" />
		<rect x="36" y="222" width="6" height="6" />
		<rect x="48" y="222" width="6" height="6" />
		<rect x="60" y="222" width="6" height="6" />
		<rect x="72" y="222" width="6" height="6" />
		<rect x="84" y="222" width="6" height="6" />
		<rect x="90" y="222" width="6" height="6" />
		<rect x="102" y="222" width="6" height="6" />
		<rect x="108" y="222" width="6" height="6" />
		<rect x="126" y="222" width="6" height="6" />
		<rect x="138" y="222" width="6" height="6" />
		<rect x="156" y="222" width="6" height="6" />
		<rect x="168" y="222" width="6" height="6" />
		<rect x="174" y="222" width="6" height="6" />
		<rect x="198" y="222" width="6" height="6" />
		<rect x="210" y="222" width="6" height="6" />
		<rect x="234" y="222" width="6" height="6" />
		<rect x="240" y="222" width="6" height="6" />
		<rect x="0" y="228" width="6" height="6" />
		<rect x="12" y="228" width="6" height="6" />
		<rect x="18" y="228" width="6" height="6" />
		<rect x="24" y="228" width="6" height="6" />
		<rect x="36" y="228" width="6" height="6" />
		<rect x="48" y="228" width="6" height="6" />
		<rect x="54" y="228" width="6" height="6" />
		<rect x="66" y="228" width="6" height="6" />
		<rect x="72" y="228" width="6" height="6" />
		<rect x="84" y="228" width="6" height="6" />
		<rect x="96" y="228" width="6" height="6" />
		<rect x="108" y="228" width="6" height="6" />
		<rect x="114" y="228" width="6" height="6" />
		<rect x="120" y="228" width="6" height="6" />
		<rect x="132" y="228" width="6" height="6" />
		<rect x="138" y="228" width="6" height="6" />
		<rect x="144" y="228" width="6" height="6" />
		<rect x="162" y="228" width="6" height="6" />
		<rect x="168" y="228" width="6" height="6" />
		<rect x="174" y="228" width="6" height="6" />
		<rect x="180" y="228" width="6" height="6" />
		<rect x="192" y="228" width="6" height="6" />
		<rect x="198" y="228" width="6" height="6" />
		<rect x="204" y="228" width="6" height="6" />
		<rect x="210" y="228" width="6" height="6" />
		<rect x="216" y="228" width="6" height="6" />
		<rect x="222" y="228" width="6" height="6" />
		<rect x="234" y="228" width="6" height="6" />
		<rect x="0" y="234" width="6" height="6" />
		<rect x="36" y="234" width="6" height="6" />
		<rect x="54" y="234" width="6" height="6" />
		<rect x="60" y="234" width="6" height="6" />
		<rect x="72" y="234" width="6" height="6" />
		<rect x="90" y="234" width="6" height="6" />
		<rect x="102" y="234" width="6" height="6" />
		<rect x="120" y="234" width="6" height="6" />
		<rect x="126" y="234" width="6" height="6" />
		<rect x="132" y="234" width="6" height="6" />
		<rect x="138" y="234" width="6" height="6" />
		<rect x="150" y="234" width="6" height="6" />
		<rect x="162" y="234" width="6" height="6" />
		<rect x="192" y="234" width="6" height="6" />
		<rect x="216" y="234" width="6" height="6" />
		<rect x="234" y="234" width="6" height="6" />
		<rect x="0" y="240" width="6" height="6" />
		<rect x="6" y="240" width="6" height="6" />
		<rect x="12" y="240" width="6" height="6" />
		<rect x="18" y="240" width="6" height="6" />
		<rect x="24" y="240" width="6" height="6" />
		<rect x="30" y="240" width="6" height="6" />
		<rect x="36" y="240" width="6" height="6" />
		<rect x="60" y="240" width="6" height="6" />
		<rect x="84" y="240" width="6" height="6" />
		<rect x="90" y="240" width="6" height="6" />
		<rect x="96" y="240" width="6" height="6" />
		<rect x="102" y="240" width="6" height="6" />
		<rect x="108" y="240" width="6" height="6" />
		<rect x="114" y="240" width="6" height="6" />
		<rect x="120" y="240" width="6" height="6" />
		<rect x="132" y="240" width="6" height="6" />
		<rect x="144" y="240" width="6" height="6" />
		<rect x="150" y="240" width="6" height="6" />
		<rect x="174" y="240" width="6" height="6" />
		<rect x="186" y="240" width="6" height="6" />
		<rect x="198" y="240" width="6" height="6" />
		<rect x="210" y="240" width="6" height="6" />
		<rect x="216" y="240" width="6" height="6" />
		<rect x="222" y="240" width="6" height="6" />
	</g>
</svg>
